%TF.GenerationSoftware,KiCad,Pcbnew,5.1.10*%
%TF.CreationDate,2021-05-31T03:58:19-05:00*%
%TF.ProjectId,airsensor,61697273-656e-4736-9f72-2e6b69636164,rev?*%
%TF.SameCoordinates,Original*%
%TF.FileFunction,Copper,L2,Bot*%
%TF.FilePolarity,Positive*%
%FSLAX46Y46*%
G04 Gerber Fmt 4.6, Leading zero omitted, Abs format (unit mm)*
G04 Created by KiCad (PCBNEW 5.1.10) date 2021-05-31 03:58:19*
%MOMM*%
%LPD*%
G01*
G04 APERTURE LIST*
%TA.AperFunction,ComponentPad*%
%ADD10O,1.110000X1.710000*%
%TD*%
%TA.AperFunction,ComponentPad*%
%ADD11O,1.700000X1.700000*%
%TD*%
%TA.AperFunction,ComponentPad*%
%ADD12R,1.700000X1.700000*%
%TD*%
%TA.AperFunction,ComponentPad*%
%ADD13R,3.200000X3.200000*%
%TD*%
%TA.AperFunction,ViaPad*%
%ADD14C,0.800000*%
%TD*%
%TA.AperFunction,Conductor*%
%ADD15C,0.304800*%
%TD*%
%TA.AperFunction,Conductor*%
%ADD16C,0.152400*%
%TD*%
%TA.AperFunction,Conductor*%
%ADD17C,0.250000*%
%TD*%
%TA.AperFunction,Conductor*%
%ADD18C,0.100000*%
%TD*%
G04 APERTURE END LIST*
D10*
%TO.P,J1,2*%
%TO.N,N/C*%
X145798000Y-157822000D03*
%TO.P,J1,3*%
X145798000Y-161622000D03*
%TO.P,J1,4*%
X137158000Y-161622000D03*
%TO.P,J1,1*%
X137158000Y-157822000D03*
%TD*%
D11*
%TO.P,J3,8*%
%TO.N,/TX*%
X167386000Y-161798000D03*
%TO.P,J3,7*%
%TO.N,/RX*%
X164846000Y-161798000D03*
%TO.P,J3,6*%
%TO.N,GND*%
X162306000Y-161798000D03*
%TO.P,J3,5*%
X159766000Y-161798000D03*
%TO.P,J3,4*%
%TO.N,/SDA*%
X157226000Y-161798000D03*
%TO.P,J3,3*%
%TO.N,/SCL*%
X154686000Y-161798000D03*
%TO.P,J3,2*%
%TO.N,GND*%
X152146000Y-161798000D03*
D12*
%TO.P,J3,1*%
%TO.N,+5V*%
X149606000Y-161798000D03*
%TD*%
D11*
%TO.P,J2,8*%
%TO.N,/SDA*%
X157226000Y-155702000D03*
%TO.P,J2,7*%
X157226000Y-158242000D03*
%TO.P,J2,6*%
%TO.N,/SCL*%
X154686000Y-155702000D03*
%TO.P,J2,5*%
X154686000Y-158242000D03*
%TO.P,J2,4*%
%TO.N,GND*%
X152146000Y-155702000D03*
%TO.P,J2,3*%
X152146000Y-158242000D03*
%TO.P,J2,2*%
%TO.N,+3V3*%
X149606000Y-155702000D03*
D12*
%TO.P,J2,1*%
X149606000Y-158242000D03*
%TD*%
D13*
%TO.P,U2,*%
%TO.N,*%
X157680000Y-139757000D03*
%TD*%
D11*
%TO.P,J4,8*%
%TO.N,+3V3*%
X169926000Y-155702000D03*
%TO.P,J4,7*%
%TO.N,GND*%
X169926000Y-158242000D03*
%TO.P,J4,6*%
%TO.N,/TX*%
X167386000Y-155702000D03*
%TO.P,J4,5*%
X167386000Y-158242000D03*
%TO.P,J4,4*%
%TO.N,/RX*%
X164846000Y-155702000D03*
%TO.P,J4,3*%
X164846000Y-158242000D03*
%TO.P,J4,2*%
%TO.N,/DTR*%
X162306000Y-155702000D03*
D12*
%TO.P,J4,1*%
%TO.N,/RST*%
X162306000Y-158242000D03*
%TD*%
D14*
%TO.N,GND*%
X153416000Y-151130000D03*
X144780000Y-153416000D03*
X150876000Y-160020000D03*
X159512000Y-158242000D03*
X169722800Y-160680400D03*
X168148000Y-147320000D03*
X170434000Y-150368000D03*
X145034000Y-149860000D03*
%TO.N,+5V*%
X147320000Y-160528000D03*
X147320000Y-156464000D03*
%TO.N,+3V3*%
X153416000Y-153416000D03*
X168656000Y-153416000D03*
%TO.N,Net-(J1-PadA5)*%
X138966000Y-155322000D03*
X140766000Y-155922000D03*
%TO.N,Net-(J1-PadB5)*%
X139366000Y-154122000D03*
X141966000Y-154922000D03*
%TO.N,/RST*%
X159004000Y-146304000D03*
X156972000Y-144272000D03*
%TD*%
D15*
%TO.N,+5V*%
X147320000Y-160528000D02*
X147320000Y-156464000D01*
%TO.N,+3V3*%
X153416000Y-153416000D02*
X168656000Y-153416000D01*
D16*
%TO.N,Net-(J1-PadA5)*%
X138966000Y-155322000D02*
X140166000Y-155322000D01*
X140166000Y-155322000D02*
X140766000Y-155922000D01*
%TO.N,Net-(J1-PadB5)*%
X141166000Y-154122000D02*
X141966000Y-154922000D01*
X139366000Y-154122000D02*
X141166000Y-154122000D01*
D17*
%TO.N,/RST*%
X156972000Y-144272000D02*
X159004000Y-146304000D01*
%TD*%
D16*
%TO.N,GND*%
X171196407Y-162039517D02*
X171175849Y-162249186D01*
X171118584Y-162438856D01*
X171025566Y-162613797D01*
X170900344Y-162767334D01*
X170747683Y-162893626D01*
X170573398Y-162987861D01*
X170384134Y-163046449D01*
X170175279Y-163068400D01*
X135648406Y-163068400D01*
X135438814Y-163047849D01*
X135249144Y-162990584D01*
X135074203Y-162897566D01*
X134920666Y-162772344D01*
X134794374Y-162619683D01*
X134700139Y-162445398D01*
X134641551Y-162256134D01*
X134619600Y-162047279D01*
X134619600Y-161281176D01*
X136326800Y-161281176D01*
X136326800Y-161962825D01*
X136338828Y-162084944D01*
X136386356Y-162241625D01*
X136463540Y-162386024D01*
X136567411Y-162512590D01*
X136693977Y-162616461D01*
X136838376Y-162693644D01*
X136995057Y-162741172D01*
X137158000Y-162757221D01*
X137320944Y-162741172D01*
X137477625Y-162693644D01*
X137622024Y-162616461D01*
X137748590Y-162512590D01*
X137852461Y-162386024D01*
X137929644Y-162241625D01*
X137977172Y-162084944D01*
X137989200Y-161962825D01*
X137989200Y-161281176D01*
X144966800Y-161281176D01*
X144966800Y-161962825D01*
X144978828Y-162084944D01*
X145026356Y-162241625D01*
X145103540Y-162386024D01*
X145207411Y-162512590D01*
X145333977Y-162616461D01*
X145478376Y-162693644D01*
X145635057Y-162741172D01*
X145798000Y-162757221D01*
X145960944Y-162741172D01*
X146117625Y-162693644D01*
X146262024Y-162616461D01*
X146388590Y-162512590D01*
X146492461Y-162386024D01*
X146569644Y-162241625D01*
X146617172Y-162084944D01*
X146629200Y-161962825D01*
X146629200Y-161281175D01*
X146617172Y-161159056D01*
X146569644Y-161002375D01*
X146492461Y-160857976D01*
X146388590Y-160731410D01*
X146262023Y-160627539D01*
X146117624Y-160550356D01*
X145960943Y-160502828D01*
X145798000Y-160486779D01*
X145635056Y-160502828D01*
X145478375Y-160550356D01*
X145333976Y-160627539D01*
X145207410Y-160731410D01*
X145103539Y-160857977D01*
X145026356Y-161002376D01*
X144978828Y-161159057D01*
X144966800Y-161281176D01*
X137989200Y-161281176D01*
X137989200Y-161281175D01*
X137977172Y-161159056D01*
X137929644Y-161002375D01*
X137852461Y-160857976D01*
X137748590Y-160731410D01*
X137622023Y-160627539D01*
X137477624Y-160550356D01*
X137320943Y-160502828D01*
X137158000Y-160486779D01*
X136995056Y-160502828D01*
X136838375Y-160550356D01*
X136693976Y-160627539D01*
X136567410Y-160731410D01*
X136463539Y-160857977D01*
X136386356Y-161002376D01*
X136338828Y-161159057D01*
X136326800Y-161281176D01*
X134619600Y-161281176D01*
X134619600Y-157481176D01*
X136326800Y-157481176D01*
X136326800Y-158162825D01*
X136338828Y-158284944D01*
X136386356Y-158441625D01*
X136463540Y-158586024D01*
X136567411Y-158712590D01*
X136693977Y-158816461D01*
X136838376Y-158893644D01*
X136995057Y-158941172D01*
X137158000Y-158957221D01*
X137320944Y-158941172D01*
X137477625Y-158893644D01*
X137622024Y-158816461D01*
X137748590Y-158712590D01*
X137852461Y-158586024D01*
X137929644Y-158441625D01*
X137977172Y-158284944D01*
X137989200Y-158162825D01*
X137989200Y-157481176D01*
X144966800Y-157481176D01*
X144966800Y-158162825D01*
X144978828Y-158284944D01*
X145026356Y-158441625D01*
X145103540Y-158586024D01*
X145207411Y-158712590D01*
X145333977Y-158816461D01*
X145478376Y-158893644D01*
X145635057Y-158941172D01*
X145798000Y-158957221D01*
X145960944Y-158941172D01*
X146117625Y-158893644D01*
X146262024Y-158816461D01*
X146388590Y-158712590D01*
X146492461Y-158586024D01*
X146569644Y-158441625D01*
X146617172Y-158284944D01*
X146629200Y-158162825D01*
X146629200Y-157481175D01*
X146617172Y-157359056D01*
X146569644Y-157202375D01*
X146492461Y-157057976D01*
X146388590Y-156931410D01*
X146262023Y-156827539D01*
X146117624Y-156750356D01*
X145960943Y-156702828D01*
X145798000Y-156686779D01*
X145635056Y-156702828D01*
X145478375Y-156750356D01*
X145333976Y-156827539D01*
X145207410Y-156931410D01*
X145103539Y-157057977D01*
X145026356Y-157202376D01*
X144978828Y-157359057D01*
X144966800Y-157481176D01*
X137989200Y-157481176D01*
X137989200Y-157481175D01*
X137977172Y-157359056D01*
X137929644Y-157202375D01*
X137852461Y-157057976D01*
X137748590Y-156931410D01*
X137622023Y-156827539D01*
X137477624Y-156750356D01*
X137320943Y-156702828D01*
X137158000Y-156686779D01*
X136995056Y-156702828D01*
X136838375Y-156750356D01*
X136693976Y-156827539D01*
X136567410Y-156931410D01*
X136463539Y-157057977D01*
X136386356Y-157202376D01*
X136338828Y-157359057D01*
X136326800Y-157481176D01*
X134619600Y-157481176D01*
X134619600Y-155255400D01*
X138289800Y-155255400D01*
X138289800Y-155388600D01*
X138315786Y-155519240D01*
X138366759Y-155642301D01*
X138440761Y-155753052D01*
X138534948Y-155847239D01*
X138645699Y-155921241D01*
X138768760Y-155972214D01*
X138899400Y-155998200D01*
X139032600Y-155998200D01*
X139163240Y-155972214D01*
X139286301Y-155921241D01*
X139397052Y-155847239D01*
X139491239Y-155753052D01*
X139543793Y-155674400D01*
X140020032Y-155674400D01*
X140108255Y-155762623D01*
X140089800Y-155855400D01*
X140089800Y-155988600D01*
X140115786Y-156119240D01*
X140166759Y-156242301D01*
X140240761Y-156353052D01*
X140334948Y-156447239D01*
X140445699Y-156521241D01*
X140568760Y-156572214D01*
X140699400Y-156598200D01*
X140832600Y-156598200D01*
X140963240Y-156572214D01*
X141086301Y-156521241D01*
X141197052Y-156447239D01*
X141246891Y-156397400D01*
X146643800Y-156397400D01*
X146643800Y-156530600D01*
X146669786Y-156661240D01*
X146720759Y-156784301D01*
X146794761Y-156895052D01*
X146888948Y-156989239D01*
X146891401Y-156990878D01*
X146891400Y-160001123D01*
X146888948Y-160002761D01*
X146794761Y-160096948D01*
X146720759Y-160207699D01*
X146669786Y-160330760D01*
X146643800Y-160461400D01*
X146643800Y-160594600D01*
X146669786Y-160725240D01*
X146720759Y-160848301D01*
X146794761Y-160959052D01*
X146888948Y-161053239D01*
X146999699Y-161127241D01*
X147122760Y-161178214D01*
X147253400Y-161204200D01*
X147386600Y-161204200D01*
X147517240Y-161178214D01*
X147640301Y-161127241D01*
X147751052Y-161053239D01*
X147845239Y-160959052D01*
X147852623Y-160948000D01*
X148478464Y-160948000D01*
X148478464Y-162648000D01*
X148483797Y-162702145D01*
X148499590Y-162754208D01*
X148525237Y-162802191D01*
X148559752Y-162844248D01*
X148601809Y-162878763D01*
X148649792Y-162904410D01*
X148701855Y-162920203D01*
X148756000Y-162925536D01*
X150456000Y-162925536D01*
X150510145Y-162920203D01*
X150562208Y-162904410D01*
X150610191Y-162878763D01*
X150652248Y-162844248D01*
X150686763Y-162802191D01*
X150712410Y-162754208D01*
X150728203Y-162702145D01*
X150733536Y-162648000D01*
X150733536Y-161966780D01*
X151080687Y-161966780D01*
X151134084Y-162171369D01*
X151226368Y-162361610D01*
X151353993Y-162530192D01*
X151512055Y-162670636D01*
X151694479Y-162777545D01*
X151894255Y-162846811D01*
X151977220Y-162863313D01*
X152145950Y-162819450D01*
X152145950Y-161798050D01*
X152146050Y-161798050D01*
X152146050Y-162819450D01*
X152314780Y-162863313D01*
X152397745Y-162846811D01*
X152597521Y-162777545D01*
X152779945Y-162670636D01*
X152938007Y-162530192D01*
X153065632Y-162361610D01*
X153157916Y-162171369D01*
X153211313Y-161966780D01*
X153167450Y-161798050D01*
X152146050Y-161798050D01*
X152145950Y-161798050D01*
X151124550Y-161798050D01*
X151080687Y-161966780D01*
X150733536Y-161966780D01*
X150733536Y-161629220D01*
X151080687Y-161629220D01*
X151124550Y-161797950D01*
X152145950Y-161797950D01*
X152145950Y-160776550D01*
X152146050Y-160776550D01*
X152146050Y-161797950D01*
X153167450Y-161797950D01*
X153196271Y-161687079D01*
X153559800Y-161687079D01*
X153559800Y-161908921D01*
X153603079Y-162126500D01*
X153687975Y-162331456D01*
X153811223Y-162515911D01*
X153968089Y-162672777D01*
X154152544Y-162796025D01*
X154357500Y-162880921D01*
X154575079Y-162924200D01*
X154796921Y-162924200D01*
X155014500Y-162880921D01*
X155219456Y-162796025D01*
X155403911Y-162672777D01*
X155560777Y-162515911D01*
X155684025Y-162331456D01*
X155768921Y-162126500D01*
X155812200Y-161908921D01*
X155812200Y-161687079D01*
X156099800Y-161687079D01*
X156099800Y-161908921D01*
X156143079Y-162126500D01*
X156227975Y-162331456D01*
X156351223Y-162515911D01*
X156508089Y-162672777D01*
X156692544Y-162796025D01*
X156897500Y-162880921D01*
X157115079Y-162924200D01*
X157336921Y-162924200D01*
X157554500Y-162880921D01*
X157759456Y-162796025D01*
X157943911Y-162672777D01*
X158100777Y-162515911D01*
X158224025Y-162331456D01*
X158308921Y-162126500D01*
X158340691Y-161966780D01*
X158700687Y-161966780D01*
X158754084Y-162171369D01*
X158846368Y-162361610D01*
X158973993Y-162530192D01*
X159132055Y-162670636D01*
X159314479Y-162777545D01*
X159514255Y-162846811D01*
X159597220Y-162863313D01*
X159765950Y-162819450D01*
X159765950Y-161798050D01*
X159766050Y-161798050D01*
X159766050Y-162819450D01*
X159934780Y-162863313D01*
X160017745Y-162846811D01*
X160217521Y-162777545D01*
X160399945Y-162670636D01*
X160558007Y-162530192D01*
X160685632Y-162361610D01*
X160777916Y-162171369D01*
X160831313Y-161966780D01*
X161240687Y-161966780D01*
X161294084Y-162171369D01*
X161386368Y-162361610D01*
X161513993Y-162530192D01*
X161672055Y-162670636D01*
X161854479Y-162777545D01*
X162054255Y-162846811D01*
X162137220Y-162863313D01*
X162305950Y-162819450D01*
X162305950Y-161798050D01*
X162306050Y-161798050D01*
X162306050Y-162819450D01*
X162474780Y-162863313D01*
X162557745Y-162846811D01*
X162757521Y-162777545D01*
X162939945Y-162670636D01*
X163098007Y-162530192D01*
X163225632Y-162361610D01*
X163317916Y-162171369D01*
X163371313Y-161966780D01*
X163327450Y-161798050D01*
X162306050Y-161798050D01*
X162305950Y-161798050D01*
X161284550Y-161798050D01*
X161240687Y-161966780D01*
X160831313Y-161966780D01*
X160787450Y-161798050D01*
X159766050Y-161798050D01*
X159765950Y-161798050D01*
X158744550Y-161798050D01*
X158700687Y-161966780D01*
X158340691Y-161966780D01*
X158352200Y-161908921D01*
X158352200Y-161687079D01*
X158340692Y-161629220D01*
X158700687Y-161629220D01*
X158744550Y-161797950D01*
X159765950Y-161797950D01*
X159765950Y-160776550D01*
X159766050Y-160776550D01*
X159766050Y-161797950D01*
X160787450Y-161797950D01*
X160831313Y-161629220D01*
X161240687Y-161629220D01*
X161284550Y-161797950D01*
X162305950Y-161797950D01*
X162305950Y-160776550D01*
X162306050Y-160776550D01*
X162306050Y-161797950D01*
X163327450Y-161797950D01*
X163356271Y-161687079D01*
X163719800Y-161687079D01*
X163719800Y-161908921D01*
X163763079Y-162126500D01*
X163847975Y-162331456D01*
X163971223Y-162515911D01*
X164128089Y-162672777D01*
X164312544Y-162796025D01*
X164517500Y-162880921D01*
X164735079Y-162924200D01*
X164956921Y-162924200D01*
X165174500Y-162880921D01*
X165379456Y-162796025D01*
X165563911Y-162672777D01*
X165720777Y-162515911D01*
X165844025Y-162331456D01*
X165928921Y-162126500D01*
X165972200Y-161908921D01*
X165972200Y-161687079D01*
X166259800Y-161687079D01*
X166259800Y-161908921D01*
X166303079Y-162126500D01*
X166387975Y-162331456D01*
X166511223Y-162515911D01*
X166668089Y-162672777D01*
X166852544Y-162796025D01*
X167057500Y-162880921D01*
X167275079Y-162924200D01*
X167496921Y-162924200D01*
X167714500Y-162880921D01*
X167919456Y-162796025D01*
X168103911Y-162672777D01*
X168260777Y-162515911D01*
X168384025Y-162331456D01*
X168468921Y-162126500D01*
X168512200Y-161908921D01*
X168512200Y-161687079D01*
X168468921Y-161469500D01*
X168384025Y-161264544D01*
X168260777Y-161080089D01*
X168103911Y-160923223D01*
X167919456Y-160799975D01*
X167714500Y-160715079D01*
X167496921Y-160671800D01*
X167275079Y-160671800D01*
X167057500Y-160715079D01*
X166852544Y-160799975D01*
X166668089Y-160923223D01*
X166511223Y-161080089D01*
X166387975Y-161264544D01*
X166303079Y-161469500D01*
X166259800Y-161687079D01*
X165972200Y-161687079D01*
X165928921Y-161469500D01*
X165844025Y-161264544D01*
X165720777Y-161080089D01*
X165563911Y-160923223D01*
X165379456Y-160799975D01*
X165174500Y-160715079D01*
X164956921Y-160671800D01*
X164735079Y-160671800D01*
X164517500Y-160715079D01*
X164312544Y-160799975D01*
X164128089Y-160923223D01*
X163971223Y-161080089D01*
X163847975Y-161264544D01*
X163763079Y-161469500D01*
X163719800Y-161687079D01*
X163356271Y-161687079D01*
X163371313Y-161629220D01*
X163317916Y-161424631D01*
X163225632Y-161234390D01*
X163098007Y-161065808D01*
X162939945Y-160925364D01*
X162757521Y-160818455D01*
X162557745Y-160749189D01*
X162474780Y-160732687D01*
X162306050Y-160776550D01*
X162305950Y-160776550D01*
X162137220Y-160732687D01*
X162054255Y-160749189D01*
X161854479Y-160818455D01*
X161672055Y-160925364D01*
X161513993Y-161065808D01*
X161386368Y-161234390D01*
X161294084Y-161424631D01*
X161240687Y-161629220D01*
X160831313Y-161629220D01*
X160777916Y-161424631D01*
X160685632Y-161234390D01*
X160558007Y-161065808D01*
X160399945Y-160925364D01*
X160217521Y-160818455D01*
X160017745Y-160749189D01*
X159934780Y-160732687D01*
X159766050Y-160776550D01*
X159765950Y-160776550D01*
X159597220Y-160732687D01*
X159514255Y-160749189D01*
X159314479Y-160818455D01*
X159132055Y-160925364D01*
X158973993Y-161065808D01*
X158846368Y-161234390D01*
X158754084Y-161424631D01*
X158700687Y-161629220D01*
X158340692Y-161629220D01*
X158308921Y-161469500D01*
X158224025Y-161264544D01*
X158100777Y-161080089D01*
X157943911Y-160923223D01*
X157759456Y-160799975D01*
X157554500Y-160715079D01*
X157336921Y-160671800D01*
X157115079Y-160671800D01*
X156897500Y-160715079D01*
X156692544Y-160799975D01*
X156508089Y-160923223D01*
X156351223Y-161080089D01*
X156227975Y-161264544D01*
X156143079Y-161469500D01*
X156099800Y-161687079D01*
X155812200Y-161687079D01*
X155768921Y-161469500D01*
X155684025Y-161264544D01*
X155560777Y-161080089D01*
X155403911Y-160923223D01*
X155219456Y-160799975D01*
X155014500Y-160715079D01*
X154796921Y-160671800D01*
X154575079Y-160671800D01*
X154357500Y-160715079D01*
X154152544Y-160799975D01*
X153968089Y-160923223D01*
X153811223Y-161080089D01*
X153687975Y-161264544D01*
X153603079Y-161469500D01*
X153559800Y-161687079D01*
X153196271Y-161687079D01*
X153211313Y-161629220D01*
X153157916Y-161424631D01*
X153065632Y-161234390D01*
X152938007Y-161065808D01*
X152779945Y-160925364D01*
X152597521Y-160818455D01*
X152397745Y-160749189D01*
X152314780Y-160732687D01*
X152146050Y-160776550D01*
X152145950Y-160776550D01*
X151977220Y-160732687D01*
X151894255Y-160749189D01*
X151694479Y-160818455D01*
X151512055Y-160925364D01*
X151353993Y-161065808D01*
X151226368Y-161234390D01*
X151134084Y-161424631D01*
X151080687Y-161629220D01*
X150733536Y-161629220D01*
X150733536Y-160948000D01*
X150728203Y-160893855D01*
X150712410Y-160841792D01*
X150686763Y-160793809D01*
X150652248Y-160751752D01*
X150610191Y-160717237D01*
X150562208Y-160691590D01*
X150510145Y-160675797D01*
X150456000Y-160670464D01*
X148756000Y-160670464D01*
X148701855Y-160675797D01*
X148649792Y-160691590D01*
X148601809Y-160717237D01*
X148559752Y-160751752D01*
X148525237Y-160793809D01*
X148499590Y-160841792D01*
X148483797Y-160893855D01*
X148478464Y-160948000D01*
X147852623Y-160948000D01*
X147919241Y-160848301D01*
X147970214Y-160725240D01*
X147996200Y-160594600D01*
X147996200Y-160461400D01*
X147970214Y-160330760D01*
X147919241Y-160207699D01*
X147845239Y-160096948D01*
X147751052Y-160002761D01*
X147748600Y-160001123D01*
X147748600Y-157392000D01*
X148478464Y-157392000D01*
X148478464Y-159092000D01*
X148483797Y-159146145D01*
X148499590Y-159198208D01*
X148525237Y-159246191D01*
X148559752Y-159288248D01*
X148601809Y-159322763D01*
X148649792Y-159348410D01*
X148701855Y-159364203D01*
X148756000Y-159369536D01*
X150456000Y-159369536D01*
X150510145Y-159364203D01*
X150562208Y-159348410D01*
X150610191Y-159322763D01*
X150652248Y-159288248D01*
X150686763Y-159246191D01*
X150712410Y-159198208D01*
X150728203Y-159146145D01*
X150733536Y-159092000D01*
X150733536Y-158410780D01*
X151080687Y-158410780D01*
X151134084Y-158615369D01*
X151226368Y-158805610D01*
X151353993Y-158974192D01*
X151512055Y-159114636D01*
X151694479Y-159221545D01*
X151894255Y-159290811D01*
X151977220Y-159307313D01*
X152145950Y-159263450D01*
X152145950Y-158242050D01*
X152146050Y-158242050D01*
X152146050Y-159263450D01*
X152314780Y-159307313D01*
X152397745Y-159290811D01*
X152597521Y-159221545D01*
X152779945Y-159114636D01*
X152938007Y-158974192D01*
X153065632Y-158805610D01*
X153157916Y-158615369D01*
X153211313Y-158410780D01*
X153167450Y-158242050D01*
X152146050Y-158242050D01*
X152145950Y-158242050D01*
X151124550Y-158242050D01*
X151080687Y-158410780D01*
X150733536Y-158410780D01*
X150733536Y-158073220D01*
X151080687Y-158073220D01*
X151124550Y-158241950D01*
X152145950Y-158241950D01*
X152145950Y-157220550D01*
X152146050Y-157220550D01*
X152146050Y-158241950D01*
X153167450Y-158241950D01*
X153196271Y-158131079D01*
X153559800Y-158131079D01*
X153559800Y-158352921D01*
X153603079Y-158570500D01*
X153687975Y-158775456D01*
X153811223Y-158959911D01*
X153968089Y-159116777D01*
X154152544Y-159240025D01*
X154357500Y-159324921D01*
X154575079Y-159368200D01*
X154796921Y-159368200D01*
X155014500Y-159324921D01*
X155219456Y-159240025D01*
X155403911Y-159116777D01*
X155560777Y-158959911D01*
X155684025Y-158775456D01*
X155768921Y-158570500D01*
X155812200Y-158352921D01*
X155812200Y-158131079D01*
X156099800Y-158131079D01*
X156099800Y-158352921D01*
X156143079Y-158570500D01*
X156227975Y-158775456D01*
X156351223Y-158959911D01*
X156508089Y-159116777D01*
X156692544Y-159240025D01*
X156897500Y-159324921D01*
X157115079Y-159368200D01*
X157336921Y-159368200D01*
X157554500Y-159324921D01*
X157759456Y-159240025D01*
X157943911Y-159116777D01*
X158100777Y-158959911D01*
X158224025Y-158775456D01*
X158308921Y-158570500D01*
X158352200Y-158352921D01*
X158352200Y-158131079D01*
X158308921Y-157913500D01*
X158224025Y-157708544D01*
X158100777Y-157524089D01*
X157968688Y-157392000D01*
X161178464Y-157392000D01*
X161178464Y-159092000D01*
X161183797Y-159146145D01*
X161199590Y-159198208D01*
X161225237Y-159246191D01*
X161259752Y-159288248D01*
X161301809Y-159322763D01*
X161349792Y-159348410D01*
X161401855Y-159364203D01*
X161456000Y-159369536D01*
X163156000Y-159369536D01*
X163210145Y-159364203D01*
X163262208Y-159348410D01*
X163310191Y-159322763D01*
X163352248Y-159288248D01*
X163386763Y-159246191D01*
X163412410Y-159198208D01*
X163428203Y-159146145D01*
X163433536Y-159092000D01*
X163433536Y-158131079D01*
X163719800Y-158131079D01*
X163719800Y-158352921D01*
X163763079Y-158570500D01*
X163847975Y-158775456D01*
X163971223Y-158959911D01*
X164128089Y-159116777D01*
X164312544Y-159240025D01*
X164517500Y-159324921D01*
X164735079Y-159368200D01*
X164956921Y-159368200D01*
X165174500Y-159324921D01*
X165379456Y-159240025D01*
X165563911Y-159116777D01*
X165720777Y-158959911D01*
X165844025Y-158775456D01*
X165928921Y-158570500D01*
X165972200Y-158352921D01*
X165972200Y-158131079D01*
X166259800Y-158131079D01*
X166259800Y-158352921D01*
X166303079Y-158570500D01*
X166387975Y-158775456D01*
X166511223Y-158959911D01*
X166668089Y-159116777D01*
X166852544Y-159240025D01*
X167057500Y-159324921D01*
X167275079Y-159368200D01*
X167496921Y-159368200D01*
X167714500Y-159324921D01*
X167919456Y-159240025D01*
X168103911Y-159116777D01*
X168260777Y-158959911D01*
X168384025Y-158775456D01*
X168468921Y-158570500D01*
X168500691Y-158410780D01*
X168860687Y-158410780D01*
X168914084Y-158615369D01*
X169006368Y-158805610D01*
X169133993Y-158974192D01*
X169292055Y-159114636D01*
X169474479Y-159221545D01*
X169674255Y-159290811D01*
X169757220Y-159307313D01*
X169925950Y-159263450D01*
X169925950Y-158242050D01*
X169926050Y-158242050D01*
X169926050Y-159263450D01*
X170094780Y-159307313D01*
X170177745Y-159290811D01*
X170377521Y-159221545D01*
X170559945Y-159114636D01*
X170718007Y-158974192D01*
X170845632Y-158805610D01*
X170937916Y-158615369D01*
X170991313Y-158410780D01*
X170947450Y-158242050D01*
X169926050Y-158242050D01*
X169925950Y-158242050D01*
X168904550Y-158242050D01*
X168860687Y-158410780D01*
X168500691Y-158410780D01*
X168512200Y-158352921D01*
X168512200Y-158131079D01*
X168500692Y-158073220D01*
X168860687Y-158073220D01*
X168904550Y-158241950D01*
X169925950Y-158241950D01*
X169925950Y-157220550D01*
X169926050Y-157220550D01*
X169926050Y-158241950D01*
X170947450Y-158241950D01*
X170991313Y-158073220D01*
X170937916Y-157868631D01*
X170845632Y-157678390D01*
X170718007Y-157509808D01*
X170559945Y-157369364D01*
X170377521Y-157262455D01*
X170177745Y-157193189D01*
X170094780Y-157176687D01*
X169926050Y-157220550D01*
X169925950Y-157220550D01*
X169757220Y-157176687D01*
X169674255Y-157193189D01*
X169474479Y-157262455D01*
X169292055Y-157369364D01*
X169133993Y-157509808D01*
X169006368Y-157678390D01*
X168914084Y-157868631D01*
X168860687Y-158073220D01*
X168500692Y-158073220D01*
X168468921Y-157913500D01*
X168384025Y-157708544D01*
X168260777Y-157524089D01*
X168103911Y-157367223D01*
X167919456Y-157243975D01*
X167714500Y-157159079D01*
X167496921Y-157115800D01*
X167275079Y-157115800D01*
X167057500Y-157159079D01*
X166852544Y-157243975D01*
X166668089Y-157367223D01*
X166511223Y-157524089D01*
X166387975Y-157708544D01*
X166303079Y-157913500D01*
X166259800Y-158131079D01*
X165972200Y-158131079D01*
X165928921Y-157913500D01*
X165844025Y-157708544D01*
X165720777Y-157524089D01*
X165563911Y-157367223D01*
X165379456Y-157243975D01*
X165174500Y-157159079D01*
X164956921Y-157115800D01*
X164735079Y-157115800D01*
X164517500Y-157159079D01*
X164312544Y-157243975D01*
X164128089Y-157367223D01*
X163971223Y-157524089D01*
X163847975Y-157708544D01*
X163763079Y-157913500D01*
X163719800Y-158131079D01*
X163433536Y-158131079D01*
X163433536Y-157392000D01*
X163428203Y-157337855D01*
X163412410Y-157285792D01*
X163386763Y-157237809D01*
X163352248Y-157195752D01*
X163310191Y-157161237D01*
X163262208Y-157135590D01*
X163210145Y-157119797D01*
X163156000Y-157114464D01*
X161456000Y-157114464D01*
X161401855Y-157119797D01*
X161349792Y-157135590D01*
X161301809Y-157161237D01*
X161259752Y-157195752D01*
X161225237Y-157237809D01*
X161199590Y-157285792D01*
X161183797Y-157337855D01*
X161178464Y-157392000D01*
X157968688Y-157392000D01*
X157943911Y-157367223D01*
X157759456Y-157243975D01*
X157554500Y-157159079D01*
X157336921Y-157115800D01*
X157115079Y-157115800D01*
X156897500Y-157159079D01*
X156692544Y-157243975D01*
X156508089Y-157367223D01*
X156351223Y-157524089D01*
X156227975Y-157708544D01*
X156143079Y-157913500D01*
X156099800Y-158131079D01*
X155812200Y-158131079D01*
X155768921Y-157913500D01*
X155684025Y-157708544D01*
X155560777Y-157524089D01*
X155403911Y-157367223D01*
X155219456Y-157243975D01*
X155014500Y-157159079D01*
X154796921Y-157115800D01*
X154575079Y-157115800D01*
X154357500Y-157159079D01*
X154152544Y-157243975D01*
X153968089Y-157367223D01*
X153811223Y-157524089D01*
X153687975Y-157708544D01*
X153603079Y-157913500D01*
X153559800Y-158131079D01*
X153196271Y-158131079D01*
X153211313Y-158073220D01*
X153157916Y-157868631D01*
X153065632Y-157678390D01*
X152938007Y-157509808D01*
X152779945Y-157369364D01*
X152597521Y-157262455D01*
X152397745Y-157193189D01*
X152314780Y-157176687D01*
X152146050Y-157220550D01*
X152145950Y-157220550D01*
X151977220Y-157176687D01*
X151894255Y-157193189D01*
X151694479Y-157262455D01*
X151512055Y-157369364D01*
X151353993Y-157509808D01*
X151226368Y-157678390D01*
X151134084Y-157868631D01*
X151080687Y-158073220D01*
X150733536Y-158073220D01*
X150733536Y-157392000D01*
X150728203Y-157337855D01*
X150712410Y-157285792D01*
X150686763Y-157237809D01*
X150652248Y-157195752D01*
X150610191Y-157161237D01*
X150562208Y-157135590D01*
X150510145Y-157119797D01*
X150456000Y-157114464D01*
X148756000Y-157114464D01*
X148701855Y-157119797D01*
X148649792Y-157135590D01*
X148601809Y-157161237D01*
X148559752Y-157195752D01*
X148525237Y-157237809D01*
X148499590Y-157285792D01*
X148483797Y-157337855D01*
X148478464Y-157392000D01*
X147748600Y-157392000D01*
X147748600Y-156990877D01*
X147751052Y-156989239D01*
X147845239Y-156895052D01*
X147919241Y-156784301D01*
X147970214Y-156661240D01*
X147996200Y-156530600D01*
X147996200Y-156397400D01*
X147970214Y-156266760D01*
X147919241Y-156143699D01*
X147845239Y-156032948D01*
X147751052Y-155938761D01*
X147640301Y-155864759D01*
X147517240Y-155813786D01*
X147386600Y-155787800D01*
X147253400Y-155787800D01*
X147122760Y-155813786D01*
X146999699Y-155864759D01*
X146888948Y-155938761D01*
X146794761Y-156032948D01*
X146720759Y-156143699D01*
X146669786Y-156266760D01*
X146643800Y-156397400D01*
X141246891Y-156397400D01*
X141291239Y-156353052D01*
X141365241Y-156242301D01*
X141416214Y-156119240D01*
X141442200Y-155988600D01*
X141442200Y-155855400D01*
X141416214Y-155724760D01*
X141365241Y-155601699D01*
X141291239Y-155490948D01*
X141197052Y-155396761D01*
X141086301Y-155322759D01*
X140963240Y-155271786D01*
X140832600Y-155245800D01*
X140699400Y-155245800D01*
X140606623Y-155264255D01*
X140427429Y-155085061D01*
X140416390Y-155071610D01*
X140362730Y-155027572D01*
X140301510Y-154994850D01*
X140235082Y-154974699D01*
X140183311Y-154969600D01*
X140183304Y-154969600D01*
X140166000Y-154967896D01*
X140148696Y-154969600D01*
X139543793Y-154969600D01*
X139491239Y-154890948D01*
X139398491Y-154798200D01*
X139432600Y-154798200D01*
X139563240Y-154772214D01*
X139686301Y-154721241D01*
X139797052Y-154647239D01*
X139891239Y-154553052D01*
X139943793Y-154474400D01*
X141020032Y-154474400D01*
X141308255Y-154762623D01*
X141289800Y-154855400D01*
X141289800Y-154988600D01*
X141315786Y-155119240D01*
X141366759Y-155242301D01*
X141440761Y-155353052D01*
X141534948Y-155447239D01*
X141645699Y-155521241D01*
X141768760Y-155572214D01*
X141899400Y-155598200D01*
X142032600Y-155598200D01*
X142068399Y-155591079D01*
X148479800Y-155591079D01*
X148479800Y-155812921D01*
X148523079Y-156030500D01*
X148607975Y-156235456D01*
X148731223Y-156419911D01*
X148888089Y-156576777D01*
X149072544Y-156700025D01*
X149277500Y-156784921D01*
X149495079Y-156828200D01*
X149716921Y-156828200D01*
X149934500Y-156784921D01*
X150139456Y-156700025D01*
X150323911Y-156576777D01*
X150480777Y-156419911D01*
X150604025Y-156235456D01*
X150688921Y-156030500D01*
X150720691Y-155870780D01*
X151080687Y-155870780D01*
X151134084Y-156075369D01*
X151226368Y-156265610D01*
X151353993Y-156434192D01*
X151512055Y-156574636D01*
X151694479Y-156681545D01*
X151894255Y-156750811D01*
X151977220Y-156767313D01*
X152145950Y-156723450D01*
X152145950Y-155702050D01*
X152146050Y-155702050D01*
X152146050Y-156723450D01*
X152314780Y-156767313D01*
X152397745Y-156750811D01*
X152597521Y-156681545D01*
X152779945Y-156574636D01*
X152938007Y-156434192D01*
X153065632Y-156265610D01*
X153157916Y-156075369D01*
X153211313Y-155870780D01*
X153167450Y-155702050D01*
X152146050Y-155702050D01*
X152145950Y-155702050D01*
X151124550Y-155702050D01*
X151080687Y-155870780D01*
X150720691Y-155870780D01*
X150732200Y-155812921D01*
X150732200Y-155591079D01*
X150720692Y-155533220D01*
X151080687Y-155533220D01*
X151124550Y-155701950D01*
X152145950Y-155701950D01*
X152145950Y-154680550D01*
X152146050Y-154680550D01*
X152146050Y-155701950D01*
X153167450Y-155701950D01*
X153196271Y-155591079D01*
X153559800Y-155591079D01*
X153559800Y-155812921D01*
X153603079Y-156030500D01*
X153687975Y-156235456D01*
X153811223Y-156419911D01*
X153968089Y-156576777D01*
X154152544Y-156700025D01*
X154357500Y-156784921D01*
X154575079Y-156828200D01*
X154796921Y-156828200D01*
X155014500Y-156784921D01*
X155219456Y-156700025D01*
X155403911Y-156576777D01*
X155560777Y-156419911D01*
X155684025Y-156235456D01*
X155768921Y-156030500D01*
X155812200Y-155812921D01*
X155812200Y-155591079D01*
X156099800Y-155591079D01*
X156099800Y-155812921D01*
X156143079Y-156030500D01*
X156227975Y-156235456D01*
X156351223Y-156419911D01*
X156508089Y-156576777D01*
X156692544Y-156700025D01*
X156897500Y-156784921D01*
X157115079Y-156828200D01*
X157336921Y-156828200D01*
X157554500Y-156784921D01*
X157759456Y-156700025D01*
X157943911Y-156576777D01*
X158100777Y-156419911D01*
X158224025Y-156235456D01*
X158308921Y-156030500D01*
X158352200Y-155812921D01*
X158352200Y-155591079D01*
X161179800Y-155591079D01*
X161179800Y-155812921D01*
X161223079Y-156030500D01*
X161307975Y-156235456D01*
X161431223Y-156419911D01*
X161588089Y-156576777D01*
X161772544Y-156700025D01*
X161977500Y-156784921D01*
X162195079Y-156828200D01*
X162416921Y-156828200D01*
X162634500Y-156784921D01*
X162839456Y-156700025D01*
X163023911Y-156576777D01*
X163180777Y-156419911D01*
X163304025Y-156235456D01*
X163388921Y-156030500D01*
X163432200Y-155812921D01*
X163432200Y-155591079D01*
X163719800Y-155591079D01*
X163719800Y-155812921D01*
X163763079Y-156030500D01*
X163847975Y-156235456D01*
X163971223Y-156419911D01*
X164128089Y-156576777D01*
X164312544Y-156700025D01*
X164517500Y-156784921D01*
X164735079Y-156828200D01*
X164956921Y-156828200D01*
X165174500Y-156784921D01*
X165379456Y-156700025D01*
X165563911Y-156576777D01*
X165720777Y-156419911D01*
X165844025Y-156235456D01*
X165928921Y-156030500D01*
X165972200Y-155812921D01*
X165972200Y-155591079D01*
X166259800Y-155591079D01*
X166259800Y-155812921D01*
X166303079Y-156030500D01*
X166387975Y-156235456D01*
X166511223Y-156419911D01*
X166668089Y-156576777D01*
X166852544Y-156700025D01*
X167057500Y-156784921D01*
X167275079Y-156828200D01*
X167496921Y-156828200D01*
X167714500Y-156784921D01*
X167919456Y-156700025D01*
X168103911Y-156576777D01*
X168260777Y-156419911D01*
X168384025Y-156235456D01*
X168468921Y-156030500D01*
X168512200Y-155812921D01*
X168512200Y-155591079D01*
X168799800Y-155591079D01*
X168799800Y-155812921D01*
X168843079Y-156030500D01*
X168927975Y-156235456D01*
X169051223Y-156419911D01*
X169208089Y-156576777D01*
X169392544Y-156700025D01*
X169597500Y-156784921D01*
X169815079Y-156828200D01*
X170036921Y-156828200D01*
X170254500Y-156784921D01*
X170459456Y-156700025D01*
X170643911Y-156576777D01*
X170800777Y-156419911D01*
X170924025Y-156235456D01*
X171008921Y-156030500D01*
X171052200Y-155812921D01*
X171052200Y-155591079D01*
X171008921Y-155373500D01*
X170924025Y-155168544D01*
X170800777Y-154984089D01*
X170643911Y-154827223D01*
X170459456Y-154703975D01*
X170254500Y-154619079D01*
X170036921Y-154575800D01*
X169815079Y-154575800D01*
X169597500Y-154619079D01*
X169392544Y-154703975D01*
X169208089Y-154827223D01*
X169051223Y-154984089D01*
X168927975Y-155168544D01*
X168843079Y-155373500D01*
X168799800Y-155591079D01*
X168512200Y-155591079D01*
X168468921Y-155373500D01*
X168384025Y-155168544D01*
X168260777Y-154984089D01*
X168103911Y-154827223D01*
X167919456Y-154703975D01*
X167714500Y-154619079D01*
X167496921Y-154575800D01*
X167275079Y-154575800D01*
X167057500Y-154619079D01*
X166852544Y-154703975D01*
X166668089Y-154827223D01*
X166511223Y-154984089D01*
X166387975Y-155168544D01*
X166303079Y-155373500D01*
X166259800Y-155591079D01*
X165972200Y-155591079D01*
X165928921Y-155373500D01*
X165844025Y-155168544D01*
X165720777Y-154984089D01*
X165563911Y-154827223D01*
X165379456Y-154703975D01*
X165174500Y-154619079D01*
X164956921Y-154575800D01*
X164735079Y-154575800D01*
X164517500Y-154619079D01*
X164312544Y-154703975D01*
X164128089Y-154827223D01*
X163971223Y-154984089D01*
X163847975Y-155168544D01*
X163763079Y-155373500D01*
X163719800Y-155591079D01*
X163432200Y-155591079D01*
X163388921Y-155373500D01*
X163304025Y-155168544D01*
X163180777Y-154984089D01*
X163023911Y-154827223D01*
X162839456Y-154703975D01*
X162634500Y-154619079D01*
X162416921Y-154575800D01*
X162195079Y-154575800D01*
X161977500Y-154619079D01*
X161772544Y-154703975D01*
X161588089Y-154827223D01*
X161431223Y-154984089D01*
X161307975Y-155168544D01*
X161223079Y-155373500D01*
X161179800Y-155591079D01*
X158352200Y-155591079D01*
X158308921Y-155373500D01*
X158224025Y-155168544D01*
X158100777Y-154984089D01*
X157943911Y-154827223D01*
X157759456Y-154703975D01*
X157554500Y-154619079D01*
X157336921Y-154575800D01*
X157115079Y-154575800D01*
X156897500Y-154619079D01*
X156692544Y-154703975D01*
X156508089Y-154827223D01*
X156351223Y-154984089D01*
X156227975Y-155168544D01*
X156143079Y-155373500D01*
X156099800Y-155591079D01*
X155812200Y-155591079D01*
X155768921Y-155373500D01*
X155684025Y-155168544D01*
X155560777Y-154984089D01*
X155403911Y-154827223D01*
X155219456Y-154703975D01*
X155014500Y-154619079D01*
X154796921Y-154575800D01*
X154575079Y-154575800D01*
X154357500Y-154619079D01*
X154152544Y-154703975D01*
X153968089Y-154827223D01*
X153811223Y-154984089D01*
X153687975Y-155168544D01*
X153603079Y-155373500D01*
X153559800Y-155591079D01*
X153196271Y-155591079D01*
X153211313Y-155533220D01*
X153157916Y-155328631D01*
X153065632Y-155138390D01*
X152938007Y-154969808D01*
X152779945Y-154829364D01*
X152597521Y-154722455D01*
X152397745Y-154653189D01*
X152314780Y-154636687D01*
X152146050Y-154680550D01*
X152145950Y-154680550D01*
X151977220Y-154636687D01*
X151894255Y-154653189D01*
X151694479Y-154722455D01*
X151512055Y-154829364D01*
X151353993Y-154969808D01*
X151226368Y-155138390D01*
X151134084Y-155328631D01*
X151080687Y-155533220D01*
X150720692Y-155533220D01*
X150688921Y-155373500D01*
X150604025Y-155168544D01*
X150480777Y-154984089D01*
X150323911Y-154827223D01*
X150139456Y-154703975D01*
X149934500Y-154619079D01*
X149716921Y-154575800D01*
X149495079Y-154575800D01*
X149277500Y-154619079D01*
X149072544Y-154703975D01*
X148888089Y-154827223D01*
X148731223Y-154984089D01*
X148607975Y-155168544D01*
X148523079Y-155373500D01*
X148479800Y-155591079D01*
X142068399Y-155591079D01*
X142163240Y-155572214D01*
X142286301Y-155521241D01*
X142397052Y-155447239D01*
X142491239Y-155353052D01*
X142565241Y-155242301D01*
X142616214Y-155119240D01*
X142642200Y-154988600D01*
X142642200Y-154855400D01*
X142616214Y-154724760D01*
X142565241Y-154601699D01*
X142491239Y-154490948D01*
X142397052Y-154396761D01*
X142286301Y-154322759D01*
X142163240Y-154271786D01*
X142032600Y-154245800D01*
X141899400Y-154245800D01*
X141806623Y-154264255D01*
X141427429Y-153885061D01*
X141416390Y-153871610D01*
X141362730Y-153827572D01*
X141301510Y-153794850D01*
X141235082Y-153774699D01*
X141183311Y-153769600D01*
X141183304Y-153769600D01*
X141166000Y-153767896D01*
X141148696Y-153769600D01*
X139943793Y-153769600D01*
X139891239Y-153690948D01*
X139797052Y-153596761D01*
X139686301Y-153522759D01*
X139563240Y-153471786D01*
X139432600Y-153445800D01*
X139299400Y-153445800D01*
X139168760Y-153471786D01*
X139045699Y-153522759D01*
X138934948Y-153596761D01*
X138840761Y-153690948D01*
X138766759Y-153801699D01*
X138715786Y-153924760D01*
X138689800Y-154055400D01*
X138689800Y-154188600D01*
X138715786Y-154319240D01*
X138766759Y-154442301D01*
X138840761Y-154553052D01*
X138933509Y-154645800D01*
X138899400Y-154645800D01*
X138768760Y-154671786D01*
X138645699Y-154722759D01*
X138534948Y-154796761D01*
X138440761Y-154890948D01*
X138366759Y-155001699D01*
X138315786Y-155124760D01*
X138289800Y-155255400D01*
X134619600Y-155255400D01*
X134619600Y-153349400D01*
X152739800Y-153349400D01*
X152739800Y-153482600D01*
X152765786Y-153613240D01*
X152816759Y-153736301D01*
X152890761Y-153847052D01*
X152984948Y-153941239D01*
X153095699Y-154015241D01*
X153218760Y-154066214D01*
X153349400Y-154092200D01*
X153482600Y-154092200D01*
X153613240Y-154066214D01*
X153736301Y-154015241D01*
X153847052Y-153941239D01*
X153941239Y-153847052D01*
X153942877Y-153844600D01*
X168129123Y-153844600D01*
X168130761Y-153847052D01*
X168224948Y-153941239D01*
X168335699Y-154015241D01*
X168458760Y-154066214D01*
X168589400Y-154092200D01*
X168722600Y-154092200D01*
X168853240Y-154066214D01*
X168976301Y-154015241D01*
X169087052Y-153941239D01*
X169181239Y-153847052D01*
X169255241Y-153736301D01*
X169306214Y-153613240D01*
X169332200Y-153482600D01*
X169332200Y-153349400D01*
X169306214Y-153218760D01*
X169255241Y-153095699D01*
X169181239Y-152984948D01*
X169087052Y-152890761D01*
X168976301Y-152816759D01*
X168853240Y-152765786D01*
X168722600Y-152739800D01*
X168589400Y-152739800D01*
X168458760Y-152765786D01*
X168335699Y-152816759D01*
X168224948Y-152890761D01*
X168130761Y-152984948D01*
X168129123Y-152987400D01*
X153942877Y-152987400D01*
X153941239Y-152984948D01*
X153847052Y-152890761D01*
X153736301Y-152816759D01*
X153613240Y-152765786D01*
X153482600Y-152739800D01*
X153349400Y-152739800D01*
X153218760Y-152765786D01*
X153095699Y-152816759D01*
X152984948Y-152890761D01*
X152890761Y-152984948D01*
X152816759Y-153095699D01*
X152765786Y-153218760D01*
X152739800Y-153349400D01*
X134619600Y-153349400D01*
X134619600Y-144205400D01*
X156295800Y-144205400D01*
X156295800Y-144338600D01*
X156321786Y-144469240D01*
X156372759Y-144592301D01*
X156446761Y-144703052D01*
X156540948Y-144797239D01*
X156651699Y-144871241D01*
X156774760Y-144922214D01*
X156905400Y-144948200D01*
X157038600Y-144948200D01*
X157073814Y-144941195D01*
X158334804Y-146202186D01*
X158327800Y-146237400D01*
X158327800Y-146370600D01*
X158353786Y-146501240D01*
X158404759Y-146624301D01*
X158478761Y-146735052D01*
X158572948Y-146829239D01*
X158683699Y-146903241D01*
X158806760Y-146954214D01*
X158937400Y-146980200D01*
X159070600Y-146980200D01*
X159201240Y-146954214D01*
X159324301Y-146903241D01*
X159435052Y-146829239D01*
X159529239Y-146735052D01*
X159603241Y-146624301D01*
X159654214Y-146501240D01*
X159680200Y-146370600D01*
X159680200Y-146237400D01*
X159654214Y-146106760D01*
X159603241Y-145983699D01*
X159529239Y-145872948D01*
X159435052Y-145778761D01*
X159324301Y-145704759D01*
X159201240Y-145653786D01*
X159070600Y-145627800D01*
X158937400Y-145627800D01*
X158902186Y-145634804D01*
X157641195Y-144373814D01*
X157648200Y-144338600D01*
X157648200Y-144205400D01*
X157622214Y-144074760D01*
X157571241Y-143951699D01*
X157497239Y-143840948D01*
X157403052Y-143746761D01*
X157292301Y-143672759D01*
X157169240Y-143621786D01*
X157038600Y-143595800D01*
X156905400Y-143595800D01*
X156774760Y-143621786D01*
X156651699Y-143672759D01*
X156540948Y-143746761D01*
X156446761Y-143840948D01*
X156372759Y-143951699D01*
X156321786Y-144074760D01*
X156295800Y-144205400D01*
X134619600Y-144205400D01*
X134619600Y-138157000D01*
X155802464Y-138157000D01*
X155802464Y-141357000D01*
X155807797Y-141411145D01*
X155823590Y-141463208D01*
X155849237Y-141511191D01*
X155883752Y-141553248D01*
X155925809Y-141587763D01*
X155973792Y-141613410D01*
X156025855Y-141629203D01*
X156080000Y-141634536D01*
X159280000Y-141634536D01*
X159334145Y-141629203D01*
X159386208Y-141613410D01*
X159434191Y-141587763D01*
X159476248Y-141553248D01*
X159510763Y-141511191D01*
X159536410Y-141463208D01*
X159552203Y-141411145D01*
X159557536Y-141357000D01*
X159557536Y-138157000D01*
X159552203Y-138102855D01*
X159536410Y-138050792D01*
X159510763Y-138002809D01*
X159476248Y-137960752D01*
X159434191Y-137926237D01*
X159386208Y-137900590D01*
X159334145Y-137884797D01*
X159280000Y-137879464D01*
X156080000Y-137879464D01*
X156025855Y-137884797D01*
X155973792Y-137900590D01*
X155925809Y-137926237D01*
X155883752Y-137960752D01*
X155849237Y-138002809D01*
X155823590Y-138050792D01*
X155807797Y-138102855D01*
X155802464Y-138157000D01*
X134619600Y-138157000D01*
X134619600Y-134569200D01*
X171211342Y-134569200D01*
X171196407Y-162039517D01*
%TA.AperFunction,Conductor*%
D18*
G36*
X171196407Y-162039517D02*
G01*
X171175849Y-162249186D01*
X171118584Y-162438856D01*
X171025566Y-162613797D01*
X170900344Y-162767334D01*
X170747683Y-162893626D01*
X170573398Y-162987861D01*
X170384134Y-163046449D01*
X170175279Y-163068400D01*
X135648406Y-163068400D01*
X135438814Y-163047849D01*
X135249144Y-162990584D01*
X135074203Y-162897566D01*
X134920666Y-162772344D01*
X134794374Y-162619683D01*
X134700139Y-162445398D01*
X134641551Y-162256134D01*
X134619600Y-162047279D01*
X134619600Y-161281176D01*
X136326800Y-161281176D01*
X136326800Y-161962825D01*
X136338828Y-162084944D01*
X136386356Y-162241625D01*
X136463540Y-162386024D01*
X136567411Y-162512590D01*
X136693977Y-162616461D01*
X136838376Y-162693644D01*
X136995057Y-162741172D01*
X137158000Y-162757221D01*
X137320944Y-162741172D01*
X137477625Y-162693644D01*
X137622024Y-162616461D01*
X137748590Y-162512590D01*
X137852461Y-162386024D01*
X137929644Y-162241625D01*
X137977172Y-162084944D01*
X137989200Y-161962825D01*
X137989200Y-161281176D01*
X144966800Y-161281176D01*
X144966800Y-161962825D01*
X144978828Y-162084944D01*
X145026356Y-162241625D01*
X145103540Y-162386024D01*
X145207411Y-162512590D01*
X145333977Y-162616461D01*
X145478376Y-162693644D01*
X145635057Y-162741172D01*
X145798000Y-162757221D01*
X145960944Y-162741172D01*
X146117625Y-162693644D01*
X146262024Y-162616461D01*
X146388590Y-162512590D01*
X146492461Y-162386024D01*
X146569644Y-162241625D01*
X146617172Y-162084944D01*
X146629200Y-161962825D01*
X146629200Y-161281175D01*
X146617172Y-161159056D01*
X146569644Y-161002375D01*
X146492461Y-160857976D01*
X146388590Y-160731410D01*
X146262023Y-160627539D01*
X146117624Y-160550356D01*
X145960943Y-160502828D01*
X145798000Y-160486779D01*
X145635056Y-160502828D01*
X145478375Y-160550356D01*
X145333976Y-160627539D01*
X145207410Y-160731410D01*
X145103539Y-160857977D01*
X145026356Y-161002376D01*
X144978828Y-161159057D01*
X144966800Y-161281176D01*
X137989200Y-161281176D01*
X137989200Y-161281175D01*
X137977172Y-161159056D01*
X137929644Y-161002375D01*
X137852461Y-160857976D01*
X137748590Y-160731410D01*
X137622023Y-160627539D01*
X137477624Y-160550356D01*
X137320943Y-160502828D01*
X137158000Y-160486779D01*
X136995056Y-160502828D01*
X136838375Y-160550356D01*
X136693976Y-160627539D01*
X136567410Y-160731410D01*
X136463539Y-160857977D01*
X136386356Y-161002376D01*
X136338828Y-161159057D01*
X136326800Y-161281176D01*
X134619600Y-161281176D01*
X134619600Y-157481176D01*
X136326800Y-157481176D01*
X136326800Y-158162825D01*
X136338828Y-158284944D01*
X136386356Y-158441625D01*
X136463540Y-158586024D01*
X136567411Y-158712590D01*
X136693977Y-158816461D01*
X136838376Y-158893644D01*
X136995057Y-158941172D01*
X137158000Y-158957221D01*
X137320944Y-158941172D01*
X137477625Y-158893644D01*
X137622024Y-158816461D01*
X137748590Y-158712590D01*
X137852461Y-158586024D01*
X137929644Y-158441625D01*
X137977172Y-158284944D01*
X137989200Y-158162825D01*
X137989200Y-157481176D01*
X144966800Y-157481176D01*
X144966800Y-158162825D01*
X144978828Y-158284944D01*
X145026356Y-158441625D01*
X145103540Y-158586024D01*
X145207411Y-158712590D01*
X145333977Y-158816461D01*
X145478376Y-158893644D01*
X145635057Y-158941172D01*
X145798000Y-158957221D01*
X145960944Y-158941172D01*
X146117625Y-158893644D01*
X146262024Y-158816461D01*
X146388590Y-158712590D01*
X146492461Y-158586024D01*
X146569644Y-158441625D01*
X146617172Y-158284944D01*
X146629200Y-158162825D01*
X146629200Y-157481175D01*
X146617172Y-157359056D01*
X146569644Y-157202375D01*
X146492461Y-157057976D01*
X146388590Y-156931410D01*
X146262023Y-156827539D01*
X146117624Y-156750356D01*
X145960943Y-156702828D01*
X145798000Y-156686779D01*
X145635056Y-156702828D01*
X145478375Y-156750356D01*
X145333976Y-156827539D01*
X145207410Y-156931410D01*
X145103539Y-157057977D01*
X145026356Y-157202376D01*
X144978828Y-157359057D01*
X144966800Y-157481176D01*
X137989200Y-157481176D01*
X137989200Y-157481175D01*
X137977172Y-157359056D01*
X137929644Y-157202375D01*
X137852461Y-157057976D01*
X137748590Y-156931410D01*
X137622023Y-156827539D01*
X137477624Y-156750356D01*
X137320943Y-156702828D01*
X137158000Y-156686779D01*
X136995056Y-156702828D01*
X136838375Y-156750356D01*
X136693976Y-156827539D01*
X136567410Y-156931410D01*
X136463539Y-157057977D01*
X136386356Y-157202376D01*
X136338828Y-157359057D01*
X136326800Y-157481176D01*
X134619600Y-157481176D01*
X134619600Y-155255400D01*
X138289800Y-155255400D01*
X138289800Y-155388600D01*
X138315786Y-155519240D01*
X138366759Y-155642301D01*
X138440761Y-155753052D01*
X138534948Y-155847239D01*
X138645699Y-155921241D01*
X138768760Y-155972214D01*
X138899400Y-155998200D01*
X139032600Y-155998200D01*
X139163240Y-155972214D01*
X139286301Y-155921241D01*
X139397052Y-155847239D01*
X139491239Y-155753052D01*
X139543793Y-155674400D01*
X140020032Y-155674400D01*
X140108255Y-155762623D01*
X140089800Y-155855400D01*
X140089800Y-155988600D01*
X140115786Y-156119240D01*
X140166759Y-156242301D01*
X140240761Y-156353052D01*
X140334948Y-156447239D01*
X140445699Y-156521241D01*
X140568760Y-156572214D01*
X140699400Y-156598200D01*
X140832600Y-156598200D01*
X140963240Y-156572214D01*
X141086301Y-156521241D01*
X141197052Y-156447239D01*
X141246891Y-156397400D01*
X146643800Y-156397400D01*
X146643800Y-156530600D01*
X146669786Y-156661240D01*
X146720759Y-156784301D01*
X146794761Y-156895052D01*
X146888948Y-156989239D01*
X146891401Y-156990878D01*
X146891400Y-160001123D01*
X146888948Y-160002761D01*
X146794761Y-160096948D01*
X146720759Y-160207699D01*
X146669786Y-160330760D01*
X146643800Y-160461400D01*
X146643800Y-160594600D01*
X146669786Y-160725240D01*
X146720759Y-160848301D01*
X146794761Y-160959052D01*
X146888948Y-161053239D01*
X146999699Y-161127241D01*
X147122760Y-161178214D01*
X147253400Y-161204200D01*
X147386600Y-161204200D01*
X147517240Y-161178214D01*
X147640301Y-161127241D01*
X147751052Y-161053239D01*
X147845239Y-160959052D01*
X147852623Y-160948000D01*
X148478464Y-160948000D01*
X148478464Y-162648000D01*
X148483797Y-162702145D01*
X148499590Y-162754208D01*
X148525237Y-162802191D01*
X148559752Y-162844248D01*
X148601809Y-162878763D01*
X148649792Y-162904410D01*
X148701855Y-162920203D01*
X148756000Y-162925536D01*
X150456000Y-162925536D01*
X150510145Y-162920203D01*
X150562208Y-162904410D01*
X150610191Y-162878763D01*
X150652248Y-162844248D01*
X150686763Y-162802191D01*
X150712410Y-162754208D01*
X150728203Y-162702145D01*
X150733536Y-162648000D01*
X150733536Y-161966780D01*
X151080687Y-161966780D01*
X151134084Y-162171369D01*
X151226368Y-162361610D01*
X151353993Y-162530192D01*
X151512055Y-162670636D01*
X151694479Y-162777545D01*
X151894255Y-162846811D01*
X151977220Y-162863313D01*
X152145950Y-162819450D01*
X152145950Y-161798050D01*
X152146050Y-161798050D01*
X152146050Y-162819450D01*
X152314780Y-162863313D01*
X152397745Y-162846811D01*
X152597521Y-162777545D01*
X152779945Y-162670636D01*
X152938007Y-162530192D01*
X153065632Y-162361610D01*
X153157916Y-162171369D01*
X153211313Y-161966780D01*
X153167450Y-161798050D01*
X152146050Y-161798050D01*
X152145950Y-161798050D01*
X151124550Y-161798050D01*
X151080687Y-161966780D01*
X150733536Y-161966780D01*
X150733536Y-161629220D01*
X151080687Y-161629220D01*
X151124550Y-161797950D01*
X152145950Y-161797950D01*
X152145950Y-160776550D01*
X152146050Y-160776550D01*
X152146050Y-161797950D01*
X153167450Y-161797950D01*
X153196271Y-161687079D01*
X153559800Y-161687079D01*
X153559800Y-161908921D01*
X153603079Y-162126500D01*
X153687975Y-162331456D01*
X153811223Y-162515911D01*
X153968089Y-162672777D01*
X154152544Y-162796025D01*
X154357500Y-162880921D01*
X154575079Y-162924200D01*
X154796921Y-162924200D01*
X155014500Y-162880921D01*
X155219456Y-162796025D01*
X155403911Y-162672777D01*
X155560777Y-162515911D01*
X155684025Y-162331456D01*
X155768921Y-162126500D01*
X155812200Y-161908921D01*
X155812200Y-161687079D01*
X156099800Y-161687079D01*
X156099800Y-161908921D01*
X156143079Y-162126500D01*
X156227975Y-162331456D01*
X156351223Y-162515911D01*
X156508089Y-162672777D01*
X156692544Y-162796025D01*
X156897500Y-162880921D01*
X157115079Y-162924200D01*
X157336921Y-162924200D01*
X157554500Y-162880921D01*
X157759456Y-162796025D01*
X157943911Y-162672777D01*
X158100777Y-162515911D01*
X158224025Y-162331456D01*
X158308921Y-162126500D01*
X158340691Y-161966780D01*
X158700687Y-161966780D01*
X158754084Y-162171369D01*
X158846368Y-162361610D01*
X158973993Y-162530192D01*
X159132055Y-162670636D01*
X159314479Y-162777545D01*
X159514255Y-162846811D01*
X159597220Y-162863313D01*
X159765950Y-162819450D01*
X159765950Y-161798050D01*
X159766050Y-161798050D01*
X159766050Y-162819450D01*
X159934780Y-162863313D01*
X160017745Y-162846811D01*
X160217521Y-162777545D01*
X160399945Y-162670636D01*
X160558007Y-162530192D01*
X160685632Y-162361610D01*
X160777916Y-162171369D01*
X160831313Y-161966780D01*
X161240687Y-161966780D01*
X161294084Y-162171369D01*
X161386368Y-162361610D01*
X161513993Y-162530192D01*
X161672055Y-162670636D01*
X161854479Y-162777545D01*
X162054255Y-162846811D01*
X162137220Y-162863313D01*
X162305950Y-162819450D01*
X162305950Y-161798050D01*
X162306050Y-161798050D01*
X162306050Y-162819450D01*
X162474780Y-162863313D01*
X162557745Y-162846811D01*
X162757521Y-162777545D01*
X162939945Y-162670636D01*
X163098007Y-162530192D01*
X163225632Y-162361610D01*
X163317916Y-162171369D01*
X163371313Y-161966780D01*
X163327450Y-161798050D01*
X162306050Y-161798050D01*
X162305950Y-161798050D01*
X161284550Y-161798050D01*
X161240687Y-161966780D01*
X160831313Y-161966780D01*
X160787450Y-161798050D01*
X159766050Y-161798050D01*
X159765950Y-161798050D01*
X158744550Y-161798050D01*
X158700687Y-161966780D01*
X158340691Y-161966780D01*
X158352200Y-161908921D01*
X158352200Y-161687079D01*
X158340692Y-161629220D01*
X158700687Y-161629220D01*
X158744550Y-161797950D01*
X159765950Y-161797950D01*
X159765950Y-160776550D01*
X159766050Y-160776550D01*
X159766050Y-161797950D01*
X160787450Y-161797950D01*
X160831313Y-161629220D01*
X161240687Y-161629220D01*
X161284550Y-161797950D01*
X162305950Y-161797950D01*
X162305950Y-160776550D01*
X162306050Y-160776550D01*
X162306050Y-161797950D01*
X163327450Y-161797950D01*
X163356271Y-161687079D01*
X163719800Y-161687079D01*
X163719800Y-161908921D01*
X163763079Y-162126500D01*
X163847975Y-162331456D01*
X163971223Y-162515911D01*
X164128089Y-162672777D01*
X164312544Y-162796025D01*
X164517500Y-162880921D01*
X164735079Y-162924200D01*
X164956921Y-162924200D01*
X165174500Y-162880921D01*
X165379456Y-162796025D01*
X165563911Y-162672777D01*
X165720777Y-162515911D01*
X165844025Y-162331456D01*
X165928921Y-162126500D01*
X165972200Y-161908921D01*
X165972200Y-161687079D01*
X166259800Y-161687079D01*
X166259800Y-161908921D01*
X166303079Y-162126500D01*
X166387975Y-162331456D01*
X166511223Y-162515911D01*
X166668089Y-162672777D01*
X166852544Y-162796025D01*
X167057500Y-162880921D01*
X167275079Y-162924200D01*
X167496921Y-162924200D01*
X167714500Y-162880921D01*
X167919456Y-162796025D01*
X168103911Y-162672777D01*
X168260777Y-162515911D01*
X168384025Y-162331456D01*
X168468921Y-162126500D01*
X168512200Y-161908921D01*
X168512200Y-161687079D01*
X168468921Y-161469500D01*
X168384025Y-161264544D01*
X168260777Y-161080089D01*
X168103911Y-160923223D01*
X167919456Y-160799975D01*
X167714500Y-160715079D01*
X167496921Y-160671800D01*
X167275079Y-160671800D01*
X167057500Y-160715079D01*
X166852544Y-160799975D01*
X166668089Y-160923223D01*
X166511223Y-161080089D01*
X166387975Y-161264544D01*
X166303079Y-161469500D01*
X166259800Y-161687079D01*
X165972200Y-161687079D01*
X165928921Y-161469500D01*
X165844025Y-161264544D01*
X165720777Y-161080089D01*
X165563911Y-160923223D01*
X165379456Y-160799975D01*
X165174500Y-160715079D01*
X164956921Y-160671800D01*
X164735079Y-160671800D01*
X164517500Y-160715079D01*
X164312544Y-160799975D01*
X164128089Y-160923223D01*
X163971223Y-161080089D01*
X163847975Y-161264544D01*
X163763079Y-161469500D01*
X163719800Y-161687079D01*
X163356271Y-161687079D01*
X163371313Y-161629220D01*
X163317916Y-161424631D01*
X163225632Y-161234390D01*
X163098007Y-161065808D01*
X162939945Y-160925364D01*
X162757521Y-160818455D01*
X162557745Y-160749189D01*
X162474780Y-160732687D01*
X162306050Y-160776550D01*
X162305950Y-160776550D01*
X162137220Y-160732687D01*
X162054255Y-160749189D01*
X161854479Y-160818455D01*
X161672055Y-160925364D01*
X161513993Y-161065808D01*
X161386368Y-161234390D01*
X161294084Y-161424631D01*
X161240687Y-161629220D01*
X160831313Y-161629220D01*
X160777916Y-161424631D01*
X160685632Y-161234390D01*
X160558007Y-161065808D01*
X160399945Y-160925364D01*
X160217521Y-160818455D01*
X160017745Y-160749189D01*
X159934780Y-160732687D01*
X159766050Y-160776550D01*
X159765950Y-160776550D01*
X159597220Y-160732687D01*
X159514255Y-160749189D01*
X159314479Y-160818455D01*
X159132055Y-160925364D01*
X158973993Y-161065808D01*
X158846368Y-161234390D01*
X158754084Y-161424631D01*
X158700687Y-161629220D01*
X158340692Y-161629220D01*
X158308921Y-161469500D01*
X158224025Y-161264544D01*
X158100777Y-161080089D01*
X157943911Y-160923223D01*
X157759456Y-160799975D01*
X157554500Y-160715079D01*
X157336921Y-160671800D01*
X157115079Y-160671800D01*
X156897500Y-160715079D01*
X156692544Y-160799975D01*
X156508089Y-160923223D01*
X156351223Y-161080089D01*
X156227975Y-161264544D01*
X156143079Y-161469500D01*
X156099800Y-161687079D01*
X155812200Y-161687079D01*
X155768921Y-161469500D01*
X155684025Y-161264544D01*
X155560777Y-161080089D01*
X155403911Y-160923223D01*
X155219456Y-160799975D01*
X155014500Y-160715079D01*
X154796921Y-160671800D01*
X154575079Y-160671800D01*
X154357500Y-160715079D01*
X154152544Y-160799975D01*
X153968089Y-160923223D01*
X153811223Y-161080089D01*
X153687975Y-161264544D01*
X153603079Y-161469500D01*
X153559800Y-161687079D01*
X153196271Y-161687079D01*
X153211313Y-161629220D01*
X153157916Y-161424631D01*
X153065632Y-161234390D01*
X152938007Y-161065808D01*
X152779945Y-160925364D01*
X152597521Y-160818455D01*
X152397745Y-160749189D01*
X152314780Y-160732687D01*
X152146050Y-160776550D01*
X152145950Y-160776550D01*
X151977220Y-160732687D01*
X151894255Y-160749189D01*
X151694479Y-160818455D01*
X151512055Y-160925364D01*
X151353993Y-161065808D01*
X151226368Y-161234390D01*
X151134084Y-161424631D01*
X151080687Y-161629220D01*
X150733536Y-161629220D01*
X150733536Y-160948000D01*
X150728203Y-160893855D01*
X150712410Y-160841792D01*
X150686763Y-160793809D01*
X150652248Y-160751752D01*
X150610191Y-160717237D01*
X150562208Y-160691590D01*
X150510145Y-160675797D01*
X150456000Y-160670464D01*
X148756000Y-160670464D01*
X148701855Y-160675797D01*
X148649792Y-160691590D01*
X148601809Y-160717237D01*
X148559752Y-160751752D01*
X148525237Y-160793809D01*
X148499590Y-160841792D01*
X148483797Y-160893855D01*
X148478464Y-160948000D01*
X147852623Y-160948000D01*
X147919241Y-160848301D01*
X147970214Y-160725240D01*
X147996200Y-160594600D01*
X147996200Y-160461400D01*
X147970214Y-160330760D01*
X147919241Y-160207699D01*
X147845239Y-160096948D01*
X147751052Y-160002761D01*
X147748600Y-160001123D01*
X147748600Y-157392000D01*
X148478464Y-157392000D01*
X148478464Y-159092000D01*
X148483797Y-159146145D01*
X148499590Y-159198208D01*
X148525237Y-159246191D01*
X148559752Y-159288248D01*
X148601809Y-159322763D01*
X148649792Y-159348410D01*
X148701855Y-159364203D01*
X148756000Y-159369536D01*
X150456000Y-159369536D01*
X150510145Y-159364203D01*
X150562208Y-159348410D01*
X150610191Y-159322763D01*
X150652248Y-159288248D01*
X150686763Y-159246191D01*
X150712410Y-159198208D01*
X150728203Y-159146145D01*
X150733536Y-159092000D01*
X150733536Y-158410780D01*
X151080687Y-158410780D01*
X151134084Y-158615369D01*
X151226368Y-158805610D01*
X151353993Y-158974192D01*
X151512055Y-159114636D01*
X151694479Y-159221545D01*
X151894255Y-159290811D01*
X151977220Y-159307313D01*
X152145950Y-159263450D01*
X152145950Y-158242050D01*
X152146050Y-158242050D01*
X152146050Y-159263450D01*
X152314780Y-159307313D01*
X152397745Y-159290811D01*
X152597521Y-159221545D01*
X152779945Y-159114636D01*
X152938007Y-158974192D01*
X153065632Y-158805610D01*
X153157916Y-158615369D01*
X153211313Y-158410780D01*
X153167450Y-158242050D01*
X152146050Y-158242050D01*
X152145950Y-158242050D01*
X151124550Y-158242050D01*
X151080687Y-158410780D01*
X150733536Y-158410780D01*
X150733536Y-158073220D01*
X151080687Y-158073220D01*
X151124550Y-158241950D01*
X152145950Y-158241950D01*
X152145950Y-157220550D01*
X152146050Y-157220550D01*
X152146050Y-158241950D01*
X153167450Y-158241950D01*
X153196271Y-158131079D01*
X153559800Y-158131079D01*
X153559800Y-158352921D01*
X153603079Y-158570500D01*
X153687975Y-158775456D01*
X153811223Y-158959911D01*
X153968089Y-159116777D01*
X154152544Y-159240025D01*
X154357500Y-159324921D01*
X154575079Y-159368200D01*
X154796921Y-159368200D01*
X155014500Y-159324921D01*
X155219456Y-159240025D01*
X155403911Y-159116777D01*
X155560777Y-158959911D01*
X155684025Y-158775456D01*
X155768921Y-158570500D01*
X155812200Y-158352921D01*
X155812200Y-158131079D01*
X156099800Y-158131079D01*
X156099800Y-158352921D01*
X156143079Y-158570500D01*
X156227975Y-158775456D01*
X156351223Y-158959911D01*
X156508089Y-159116777D01*
X156692544Y-159240025D01*
X156897500Y-159324921D01*
X157115079Y-159368200D01*
X157336921Y-159368200D01*
X157554500Y-159324921D01*
X157759456Y-159240025D01*
X157943911Y-159116777D01*
X158100777Y-158959911D01*
X158224025Y-158775456D01*
X158308921Y-158570500D01*
X158352200Y-158352921D01*
X158352200Y-158131079D01*
X158308921Y-157913500D01*
X158224025Y-157708544D01*
X158100777Y-157524089D01*
X157968688Y-157392000D01*
X161178464Y-157392000D01*
X161178464Y-159092000D01*
X161183797Y-159146145D01*
X161199590Y-159198208D01*
X161225237Y-159246191D01*
X161259752Y-159288248D01*
X161301809Y-159322763D01*
X161349792Y-159348410D01*
X161401855Y-159364203D01*
X161456000Y-159369536D01*
X163156000Y-159369536D01*
X163210145Y-159364203D01*
X163262208Y-159348410D01*
X163310191Y-159322763D01*
X163352248Y-159288248D01*
X163386763Y-159246191D01*
X163412410Y-159198208D01*
X163428203Y-159146145D01*
X163433536Y-159092000D01*
X163433536Y-158131079D01*
X163719800Y-158131079D01*
X163719800Y-158352921D01*
X163763079Y-158570500D01*
X163847975Y-158775456D01*
X163971223Y-158959911D01*
X164128089Y-159116777D01*
X164312544Y-159240025D01*
X164517500Y-159324921D01*
X164735079Y-159368200D01*
X164956921Y-159368200D01*
X165174500Y-159324921D01*
X165379456Y-159240025D01*
X165563911Y-159116777D01*
X165720777Y-158959911D01*
X165844025Y-158775456D01*
X165928921Y-158570500D01*
X165972200Y-158352921D01*
X165972200Y-158131079D01*
X166259800Y-158131079D01*
X166259800Y-158352921D01*
X166303079Y-158570500D01*
X166387975Y-158775456D01*
X166511223Y-158959911D01*
X166668089Y-159116777D01*
X166852544Y-159240025D01*
X167057500Y-159324921D01*
X167275079Y-159368200D01*
X167496921Y-159368200D01*
X167714500Y-159324921D01*
X167919456Y-159240025D01*
X168103911Y-159116777D01*
X168260777Y-158959911D01*
X168384025Y-158775456D01*
X168468921Y-158570500D01*
X168500691Y-158410780D01*
X168860687Y-158410780D01*
X168914084Y-158615369D01*
X169006368Y-158805610D01*
X169133993Y-158974192D01*
X169292055Y-159114636D01*
X169474479Y-159221545D01*
X169674255Y-159290811D01*
X169757220Y-159307313D01*
X169925950Y-159263450D01*
X169925950Y-158242050D01*
X169926050Y-158242050D01*
X169926050Y-159263450D01*
X170094780Y-159307313D01*
X170177745Y-159290811D01*
X170377521Y-159221545D01*
X170559945Y-159114636D01*
X170718007Y-158974192D01*
X170845632Y-158805610D01*
X170937916Y-158615369D01*
X170991313Y-158410780D01*
X170947450Y-158242050D01*
X169926050Y-158242050D01*
X169925950Y-158242050D01*
X168904550Y-158242050D01*
X168860687Y-158410780D01*
X168500691Y-158410780D01*
X168512200Y-158352921D01*
X168512200Y-158131079D01*
X168500692Y-158073220D01*
X168860687Y-158073220D01*
X168904550Y-158241950D01*
X169925950Y-158241950D01*
X169925950Y-157220550D01*
X169926050Y-157220550D01*
X169926050Y-158241950D01*
X170947450Y-158241950D01*
X170991313Y-158073220D01*
X170937916Y-157868631D01*
X170845632Y-157678390D01*
X170718007Y-157509808D01*
X170559945Y-157369364D01*
X170377521Y-157262455D01*
X170177745Y-157193189D01*
X170094780Y-157176687D01*
X169926050Y-157220550D01*
X169925950Y-157220550D01*
X169757220Y-157176687D01*
X169674255Y-157193189D01*
X169474479Y-157262455D01*
X169292055Y-157369364D01*
X169133993Y-157509808D01*
X169006368Y-157678390D01*
X168914084Y-157868631D01*
X168860687Y-158073220D01*
X168500692Y-158073220D01*
X168468921Y-157913500D01*
X168384025Y-157708544D01*
X168260777Y-157524089D01*
X168103911Y-157367223D01*
X167919456Y-157243975D01*
X167714500Y-157159079D01*
X167496921Y-157115800D01*
X167275079Y-157115800D01*
X167057500Y-157159079D01*
X166852544Y-157243975D01*
X166668089Y-157367223D01*
X166511223Y-157524089D01*
X166387975Y-157708544D01*
X166303079Y-157913500D01*
X166259800Y-158131079D01*
X165972200Y-158131079D01*
X165928921Y-157913500D01*
X165844025Y-157708544D01*
X165720777Y-157524089D01*
X165563911Y-157367223D01*
X165379456Y-157243975D01*
X165174500Y-157159079D01*
X164956921Y-157115800D01*
X164735079Y-157115800D01*
X164517500Y-157159079D01*
X164312544Y-157243975D01*
X164128089Y-157367223D01*
X163971223Y-157524089D01*
X163847975Y-157708544D01*
X163763079Y-157913500D01*
X163719800Y-158131079D01*
X163433536Y-158131079D01*
X163433536Y-157392000D01*
X163428203Y-157337855D01*
X163412410Y-157285792D01*
X163386763Y-157237809D01*
X163352248Y-157195752D01*
X163310191Y-157161237D01*
X163262208Y-157135590D01*
X163210145Y-157119797D01*
X163156000Y-157114464D01*
X161456000Y-157114464D01*
X161401855Y-157119797D01*
X161349792Y-157135590D01*
X161301809Y-157161237D01*
X161259752Y-157195752D01*
X161225237Y-157237809D01*
X161199590Y-157285792D01*
X161183797Y-157337855D01*
X161178464Y-157392000D01*
X157968688Y-157392000D01*
X157943911Y-157367223D01*
X157759456Y-157243975D01*
X157554500Y-157159079D01*
X157336921Y-157115800D01*
X157115079Y-157115800D01*
X156897500Y-157159079D01*
X156692544Y-157243975D01*
X156508089Y-157367223D01*
X156351223Y-157524089D01*
X156227975Y-157708544D01*
X156143079Y-157913500D01*
X156099800Y-158131079D01*
X155812200Y-158131079D01*
X155768921Y-157913500D01*
X155684025Y-157708544D01*
X155560777Y-157524089D01*
X155403911Y-157367223D01*
X155219456Y-157243975D01*
X155014500Y-157159079D01*
X154796921Y-157115800D01*
X154575079Y-157115800D01*
X154357500Y-157159079D01*
X154152544Y-157243975D01*
X153968089Y-157367223D01*
X153811223Y-157524089D01*
X153687975Y-157708544D01*
X153603079Y-157913500D01*
X153559800Y-158131079D01*
X153196271Y-158131079D01*
X153211313Y-158073220D01*
X153157916Y-157868631D01*
X153065632Y-157678390D01*
X152938007Y-157509808D01*
X152779945Y-157369364D01*
X152597521Y-157262455D01*
X152397745Y-157193189D01*
X152314780Y-157176687D01*
X152146050Y-157220550D01*
X152145950Y-157220550D01*
X151977220Y-157176687D01*
X151894255Y-157193189D01*
X151694479Y-157262455D01*
X151512055Y-157369364D01*
X151353993Y-157509808D01*
X151226368Y-157678390D01*
X151134084Y-157868631D01*
X151080687Y-158073220D01*
X150733536Y-158073220D01*
X150733536Y-157392000D01*
X150728203Y-157337855D01*
X150712410Y-157285792D01*
X150686763Y-157237809D01*
X150652248Y-157195752D01*
X150610191Y-157161237D01*
X150562208Y-157135590D01*
X150510145Y-157119797D01*
X150456000Y-157114464D01*
X148756000Y-157114464D01*
X148701855Y-157119797D01*
X148649792Y-157135590D01*
X148601809Y-157161237D01*
X148559752Y-157195752D01*
X148525237Y-157237809D01*
X148499590Y-157285792D01*
X148483797Y-157337855D01*
X148478464Y-157392000D01*
X147748600Y-157392000D01*
X147748600Y-156990877D01*
X147751052Y-156989239D01*
X147845239Y-156895052D01*
X147919241Y-156784301D01*
X147970214Y-156661240D01*
X147996200Y-156530600D01*
X147996200Y-156397400D01*
X147970214Y-156266760D01*
X147919241Y-156143699D01*
X147845239Y-156032948D01*
X147751052Y-155938761D01*
X147640301Y-155864759D01*
X147517240Y-155813786D01*
X147386600Y-155787800D01*
X147253400Y-155787800D01*
X147122760Y-155813786D01*
X146999699Y-155864759D01*
X146888948Y-155938761D01*
X146794761Y-156032948D01*
X146720759Y-156143699D01*
X146669786Y-156266760D01*
X146643800Y-156397400D01*
X141246891Y-156397400D01*
X141291239Y-156353052D01*
X141365241Y-156242301D01*
X141416214Y-156119240D01*
X141442200Y-155988600D01*
X141442200Y-155855400D01*
X141416214Y-155724760D01*
X141365241Y-155601699D01*
X141291239Y-155490948D01*
X141197052Y-155396761D01*
X141086301Y-155322759D01*
X140963240Y-155271786D01*
X140832600Y-155245800D01*
X140699400Y-155245800D01*
X140606623Y-155264255D01*
X140427429Y-155085061D01*
X140416390Y-155071610D01*
X140362730Y-155027572D01*
X140301510Y-154994850D01*
X140235082Y-154974699D01*
X140183311Y-154969600D01*
X140183304Y-154969600D01*
X140166000Y-154967896D01*
X140148696Y-154969600D01*
X139543793Y-154969600D01*
X139491239Y-154890948D01*
X139398491Y-154798200D01*
X139432600Y-154798200D01*
X139563240Y-154772214D01*
X139686301Y-154721241D01*
X139797052Y-154647239D01*
X139891239Y-154553052D01*
X139943793Y-154474400D01*
X141020032Y-154474400D01*
X141308255Y-154762623D01*
X141289800Y-154855400D01*
X141289800Y-154988600D01*
X141315786Y-155119240D01*
X141366759Y-155242301D01*
X141440761Y-155353052D01*
X141534948Y-155447239D01*
X141645699Y-155521241D01*
X141768760Y-155572214D01*
X141899400Y-155598200D01*
X142032600Y-155598200D01*
X142068399Y-155591079D01*
X148479800Y-155591079D01*
X148479800Y-155812921D01*
X148523079Y-156030500D01*
X148607975Y-156235456D01*
X148731223Y-156419911D01*
X148888089Y-156576777D01*
X149072544Y-156700025D01*
X149277500Y-156784921D01*
X149495079Y-156828200D01*
X149716921Y-156828200D01*
X149934500Y-156784921D01*
X150139456Y-156700025D01*
X150323911Y-156576777D01*
X150480777Y-156419911D01*
X150604025Y-156235456D01*
X150688921Y-156030500D01*
X150720691Y-155870780D01*
X151080687Y-155870780D01*
X151134084Y-156075369D01*
X151226368Y-156265610D01*
X151353993Y-156434192D01*
X151512055Y-156574636D01*
X151694479Y-156681545D01*
X151894255Y-156750811D01*
X151977220Y-156767313D01*
X152145950Y-156723450D01*
X152145950Y-155702050D01*
X152146050Y-155702050D01*
X152146050Y-156723450D01*
X152314780Y-156767313D01*
X152397745Y-156750811D01*
X152597521Y-156681545D01*
X152779945Y-156574636D01*
X152938007Y-156434192D01*
X153065632Y-156265610D01*
X153157916Y-156075369D01*
X153211313Y-155870780D01*
X153167450Y-155702050D01*
X152146050Y-155702050D01*
X152145950Y-155702050D01*
X151124550Y-155702050D01*
X151080687Y-155870780D01*
X150720691Y-155870780D01*
X150732200Y-155812921D01*
X150732200Y-155591079D01*
X150720692Y-155533220D01*
X151080687Y-155533220D01*
X151124550Y-155701950D01*
X152145950Y-155701950D01*
X152145950Y-154680550D01*
X152146050Y-154680550D01*
X152146050Y-155701950D01*
X153167450Y-155701950D01*
X153196271Y-155591079D01*
X153559800Y-155591079D01*
X153559800Y-155812921D01*
X153603079Y-156030500D01*
X153687975Y-156235456D01*
X153811223Y-156419911D01*
X153968089Y-156576777D01*
X154152544Y-156700025D01*
X154357500Y-156784921D01*
X154575079Y-156828200D01*
X154796921Y-156828200D01*
X155014500Y-156784921D01*
X155219456Y-156700025D01*
X155403911Y-156576777D01*
X155560777Y-156419911D01*
X155684025Y-156235456D01*
X155768921Y-156030500D01*
X155812200Y-155812921D01*
X155812200Y-155591079D01*
X156099800Y-155591079D01*
X156099800Y-155812921D01*
X156143079Y-156030500D01*
X156227975Y-156235456D01*
X156351223Y-156419911D01*
X156508089Y-156576777D01*
X156692544Y-156700025D01*
X156897500Y-156784921D01*
X157115079Y-156828200D01*
X157336921Y-156828200D01*
X157554500Y-156784921D01*
X157759456Y-156700025D01*
X157943911Y-156576777D01*
X158100777Y-156419911D01*
X158224025Y-156235456D01*
X158308921Y-156030500D01*
X158352200Y-155812921D01*
X158352200Y-155591079D01*
X161179800Y-155591079D01*
X161179800Y-155812921D01*
X161223079Y-156030500D01*
X161307975Y-156235456D01*
X161431223Y-156419911D01*
X161588089Y-156576777D01*
X161772544Y-156700025D01*
X161977500Y-156784921D01*
X162195079Y-156828200D01*
X162416921Y-156828200D01*
X162634500Y-156784921D01*
X162839456Y-156700025D01*
X163023911Y-156576777D01*
X163180777Y-156419911D01*
X163304025Y-156235456D01*
X163388921Y-156030500D01*
X163432200Y-155812921D01*
X163432200Y-155591079D01*
X163719800Y-155591079D01*
X163719800Y-155812921D01*
X163763079Y-156030500D01*
X163847975Y-156235456D01*
X163971223Y-156419911D01*
X164128089Y-156576777D01*
X164312544Y-156700025D01*
X164517500Y-156784921D01*
X164735079Y-156828200D01*
X164956921Y-156828200D01*
X165174500Y-156784921D01*
X165379456Y-156700025D01*
X165563911Y-156576777D01*
X165720777Y-156419911D01*
X165844025Y-156235456D01*
X165928921Y-156030500D01*
X165972200Y-155812921D01*
X165972200Y-155591079D01*
X166259800Y-155591079D01*
X166259800Y-155812921D01*
X166303079Y-156030500D01*
X166387975Y-156235456D01*
X166511223Y-156419911D01*
X166668089Y-156576777D01*
X166852544Y-156700025D01*
X167057500Y-156784921D01*
X167275079Y-156828200D01*
X167496921Y-156828200D01*
X167714500Y-156784921D01*
X167919456Y-156700025D01*
X168103911Y-156576777D01*
X168260777Y-156419911D01*
X168384025Y-156235456D01*
X168468921Y-156030500D01*
X168512200Y-155812921D01*
X168512200Y-155591079D01*
X168799800Y-155591079D01*
X168799800Y-155812921D01*
X168843079Y-156030500D01*
X168927975Y-156235456D01*
X169051223Y-156419911D01*
X169208089Y-156576777D01*
X169392544Y-156700025D01*
X169597500Y-156784921D01*
X169815079Y-156828200D01*
X170036921Y-156828200D01*
X170254500Y-156784921D01*
X170459456Y-156700025D01*
X170643911Y-156576777D01*
X170800777Y-156419911D01*
X170924025Y-156235456D01*
X171008921Y-156030500D01*
X171052200Y-155812921D01*
X171052200Y-155591079D01*
X171008921Y-155373500D01*
X170924025Y-155168544D01*
X170800777Y-154984089D01*
X170643911Y-154827223D01*
X170459456Y-154703975D01*
X170254500Y-154619079D01*
X170036921Y-154575800D01*
X169815079Y-154575800D01*
X169597500Y-154619079D01*
X169392544Y-154703975D01*
X169208089Y-154827223D01*
X169051223Y-154984089D01*
X168927975Y-155168544D01*
X168843079Y-155373500D01*
X168799800Y-155591079D01*
X168512200Y-155591079D01*
X168468921Y-155373500D01*
X168384025Y-155168544D01*
X168260777Y-154984089D01*
X168103911Y-154827223D01*
X167919456Y-154703975D01*
X167714500Y-154619079D01*
X167496921Y-154575800D01*
X167275079Y-154575800D01*
X167057500Y-154619079D01*
X166852544Y-154703975D01*
X166668089Y-154827223D01*
X166511223Y-154984089D01*
X166387975Y-155168544D01*
X166303079Y-155373500D01*
X166259800Y-155591079D01*
X165972200Y-155591079D01*
X165928921Y-155373500D01*
X165844025Y-155168544D01*
X165720777Y-154984089D01*
X165563911Y-154827223D01*
X165379456Y-154703975D01*
X165174500Y-154619079D01*
X164956921Y-154575800D01*
X164735079Y-154575800D01*
X164517500Y-154619079D01*
X164312544Y-154703975D01*
X164128089Y-154827223D01*
X163971223Y-154984089D01*
X163847975Y-155168544D01*
X163763079Y-155373500D01*
X163719800Y-155591079D01*
X163432200Y-155591079D01*
X163388921Y-155373500D01*
X163304025Y-155168544D01*
X163180777Y-154984089D01*
X163023911Y-154827223D01*
X162839456Y-154703975D01*
X162634500Y-154619079D01*
X162416921Y-154575800D01*
X162195079Y-154575800D01*
X161977500Y-154619079D01*
X161772544Y-154703975D01*
X161588089Y-154827223D01*
X161431223Y-154984089D01*
X161307975Y-155168544D01*
X161223079Y-155373500D01*
X161179800Y-155591079D01*
X158352200Y-155591079D01*
X158308921Y-155373500D01*
X158224025Y-155168544D01*
X158100777Y-154984089D01*
X157943911Y-154827223D01*
X157759456Y-154703975D01*
X157554500Y-154619079D01*
X157336921Y-154575800D01*
X157115079Y-154575800D01*
X156897500Y-154619079D01*
X156692544Y-154703975D01*
X156508089Y-154827223D01*
X156351223Y-154984089D01*
X156227975Y-155168544D01*
X156143079Y-155373500D01*
X156099800Y-155591079D01*
X155812200Y-155591079D01*
X155768921Y-155373500D01*
X155684025Y-155168544D01*
X155560777Y-154984089D01*
X155403911Y-154827223D01*
X155219456Y-154703975D01*
X155014500Y-154619079D01*
X154796921Y-154575800D01*
X154575079Y-154575800D01*
X154357500Y-154619079D01*
X154152544Y-154703975D01*
X153968089Y-154827223D01*
X153811223Y-154984089D01*
X153687975Y-155168544D01*
X153603079Y-155373500D01*
X153559800Y-155591079D01*
X153196271Y-155591079D01*
X153211313Y-155533220D01*
X153157916Y-155328631D01*
X153065632Y-155138390D01*
X152938007Y-154969808D01*
X152779945Y-154829364D01*
X152597521Y-154722455D01*
X152397745Y-154653189D01*
X152314780Y-154636687D01*
X152146050Y-154680550D01*
X152145950Y-154680550D01*
X151977220Y-154636687D01*
X151894255Y-154653189D01*
X151694479Y-154722455D01*
X151512055Y-154829364D01*
X151353993Y-154969808D01*
X151226368Y-155138390D01*
X151134084Y-155328631D01*
X151080687Y-155533220D01*
X150720692Y-155533220D01*
X150688921Y-155373500D01*
X150604025Y-155168544D01*
X150480777Y-154984089D01*
X150323911Y-154827223D01*
X150139456Y-154703975D01*
X149934500Y-154619079D01*
X149716921Y-154575800D01*
X149495079Y-154575800D01*
X149277500Y-154619079D01*
X149072544Y-154703975D01*
X148888089Y-154827223D01*
X148731223Y-154984089D01*
X148607975Y-155168544D01*
X148523079Y-155373500D01*
X148479800Y-155591079D01*
X142068399Y-155591079D01*
X142163240Y-155572214D01*
X142286301Y-155521241D01*
X142397052Y-155447239D01*
X142491239Y-155353052D01*
X142565241Y-155242301D01*
X142616214Y-155119240D01*
X142642200Y-154988600D01*
X142642200Y-154855400D01*
X142616214Y-154724760D01*
X142565241Y-154601699D01*
X142491239Y-154490948D01*
X142397052Y-154396761D01*
X142286301Y-154322759D01*
X142163240Y-154271786D01*
X142032600Y-154245800D01*
X141899400Y-154245800D01*
X141806623Y-154264255D01*
X141427429Y-153885061D01*
X141416390Y-153871610D01*
X141362730Y-153827572D01*
X141301510Y-153794850D01*
X141235082Y-153774699D01*
X141183311Y-153769600D01*
X141183304Y-153769600D01*
X141166000Y-153767896D01*
X141148696Y-153769600D01*
X139943793Y-153769600D01*
X139891239Y-153690948D01*
X139797052Y-153596761D01*
X139686301Y-153522759D01*
X139563240Y-153471786D01*
X139432600Y-153445800D01*
X139299400Y-153445800D01*
X139168760Y-153471786D01*
X139045699Y-153522759D01*
X138934948Y-153596761D01*
X138840761Y-153690948D01*
X138766759Y-153801699D01*
X138715786Y-153924760D01*
X138689800Y-154055400D01*
X138689800Y-154188600D01*
X138715786Y-154319240D01*
X138766759Y-154442301D01*
X138840761Y-154553052D01*
X138933509Y-154645800D01*
X138899400Y-154645800D01*
X138768760Y-154671786D01*
X138645699Y-154722759D01*
X138534948Y-154796761D01*
X138440761Y-154890948D01*
X138366759Y-155001699D01*
X138315786Y-155124760D01*
X138289800Y-155255400D01*
X134619600Y-155255400D01*
X134619600Y-153349400D01*
X152739800Y-153349400D01*
X152739800Y-153482600D01*
X152765786Y-153613240D01*
X152816759Y-153736301D01*
X152890761Y-153847052D01*
X152984948Y-153941239D01*
X153095699Y-154015241D01*
X153218760Y-154066214D01*
X153349400Y-154092200D01*
X153482600Y-154092200D01*
X153613240Y-154066214D01*
X153736301Y-154015241D01*
X153847052Y-153941239D01*
X153941239Y-153847052D01*
X153942877Y-153844600D01*
X168129123Y-153844600D01*
X168130761Y-153847052D01*
X168224948Y-153941239D01*
X168335699Y-154015241D01*
X168458760Y-154066214D01*
X168589400Y-154092200D01*
X168722600Y-154092200D01*
X168853240Y-154066214D01*
X168976301Y-154015241D01*
X169087052Y-153941239D01*
X169181239Y-153847052D01*
X169255241Y-153736301D01*
X169306214Y-153613240D01*
X169332200Y-153482600D01*
X169332200Y-153349400D01*
X169306214Y-153218760D01*
X169255241Y-153095699D01*
X169181239Y-152984948D01*
X169087052Y-152890761D01*
X168976301Y-152816759D01*
X168853240Y-152765786D01*
X168722600Y-152739800D01*
X168589400Y-152739800D01*
X168458760Y-152765786D01*
X168335699Y-152816759D01*
X168224948Y-152890761D01*
X168130761Y-152984948D01*
X168129123Y-152987400D01*
X153942877Y-152987400D01*
X153941239Y-152984948D01*
X153847052Y-152890761D01*
X153736301Y-152816759D01*
X153613240Y-152765786D01*
X153482600Y-152739800D01*
X153349400Y-152739800D01*
X153218760Y-152765786D01*
X153095699Y-152816759D01*
X152984948Y-152890761D01*
X152890761Y-152984948D01*
X152816759Y-153095699D01*
X152765786Y-153218760D01*
X152739800Y-153349400D01*
X134619600Y-153349400D01*
X134619600Y-144205400D01*
X156295800Y-144205400D01*
X156295800Y-144338600D01*
X156321786Y-144469240D01*
X156372759Y-144592301D01*
X156446761Y-144703052D01*
X156540948Y-144797239D01*
X156651699Y-144871241D01*
X156774760Y-144922214D01*
X156905400Y-144948200D01*
X157038600Y-144948200D01*
X157073814Y-144941195D01*
X158334804Y-146202186D01*
X158327800Y-146237400D01*
X158327800Y-146370600D01*
X158353786Y-146501240D01*
X158404759Y-146624301D01*
X158478761Y-146735052D01*
X158572948Y-146829239D01*
X158683699Y-146903241D01*
X158806760Y-146954214D01*
X158937400Y-146980200D01*
X159070600Y-146980200D01*
X159201240Y-146954214D01*
X159324301Y-146903241D01*
X159435052Y-146829239D01*
X159529239Y-146735052D01*
X159603241Y-146624301D01*
X159654214Y-146501240D01*
X159680200Y-146370600D01*
X159680200Y-146237400D01*
X159654214Y-146106760D01*
X159603241Y-145983699D01*
X159529239Y-145872948D01*
X159435052Y-145778761D01*
X159324301Y-145704759D01*
X159201240Y-145653786D01*
X159070600Y-145627800D01*
X158937400Y-145627800D01*
X158902186Y-145634804D01*
X157641195Y-144373814D01*
X157648200Y-144338600D01*
X157648200Y-144205400D01*
X157622214Y-144074760D01*
X157571241Y-143951699D01*
X157497239Y-143840948D01*
X157403052Y-143746761D01*
X157292301Y-143672759D01*
X157169240Y-143621786D01*
X157038600Y-143595800D01*
X156905400Y-143595800D01*
X156774760Y-143621786D01*
X156651699Y-143672759D01*
X156540948Y-143746761D01*
X156446761Y-143840948D01*
X156372759Y-143951699D01*
X156321786Y-144074760D01*
X156295800Y-144205400D01*
X134619600Y-144205400D01*
X134619600Y-138157000D01*
X155802464Y-138157000D01*
X155802464Y-141357000D01*
X155807797Y-141411145D01*
X155823590Y-141463208D01*
X155849237Y-141511191D01*
X155883752Y-141553248D01*
X155925809Y-141587763D01*
X155973792Y-141613410D01*
X156025855Y-141629203D01*
X156080000Y-141634536D01*
X159280000Y-141634536D01*
X159334145Y-141629203D01*
X159386208Y-141613410D01*
X159434191Y-141587763D01*
X159476248Y-141553248D01*
X159510763Y-141511191D01*
X159536410Y-141463208D01*
X159552203Y-141411145D01*
X159557536Y-141357000D01*
X159557536Y-138157000D01*
X159552203Y-138102855D01*
X159536410Y-138050792D01*
X159510763Y-138002809D01*
X159476248Y-137960752D01*
X159434191Y-137926237D01*
X159386208Y-137900590D01*
X159334145Y-137884797D01*
X159280000Y-137879464D01*
X156080000Y-137879464D01*
X156025855Y-137884797D01*
X155973792Y-137900590D01*
X155925809Y-137926237D01*
X155883752Y-137960752D01*
X155849237Y-138002809D01*
X155823590Y-138050792D01*
X155807797Y-138102855D01*
X155802464Y-138157000D01*
X134619600Y-138157000D01*
X134619600Y-134569200D01*
X171211342Y-134569200D01*
X171196407Y-162039517D01*
G37*
%TD.AperFunction*%
%TD*%
M02*
