%TF.GenerationSoftware,KiCad,Pcbnew,5.1.10*%
%TF.CreationDate,2021-05-31T03:58:19-05:00*%
%TF.ProjectId,airsensor,61697273-656e-4736-9f72-2e6b69636164,rev?*%
%TF.SameCoordinates,Original*%
%TF.FileFunction,Legend,Top*%
%TF.FilePolarity,Positive*%
%FSLAX46Y46*%
G04 Gerber Fmt 4.6, Leading zero omitted, Abs format (unit mm)*
G04 Created by KiCad (PCBNEW 5.1.10) date 2021-05-31 03:58:19*
%MOMM*%
%LPD*%
G01*
G04 APERTURE LIST*
%ADD10C,0.150000*%
%ADD11C,0.120000*%
G04 APERTURE END LIST*
D10*
X143485047Y-147293428D02*
X144246952Y-147293428D01*
X168032666Y-141650571D02*
X168175523Y-141698190D01*
X168223142Y-141745809D01*
X168270761Y-141841047D01*
X168270761Y-141983904D01*
X168223142Y-142079142D01*
X168175523Y-142126761D01*
X168080285Y-142174380D01*
X167699333Y-142174380D01*
X167699333Y-141174380D01*
X168032666Y-141174380D01*
X168127904Y-141222000D01*
X168175523Y-141269619D01*
X168223142Y-141364857D01*
X168223142Y-141460095D01*
X168175523Y-141555333D01*
X168127904Y-141602952D01*
X168032666Y-141650571D01*
X167699333Y-141650571D01*
X169175523Y-142174380D02*
X168699333Y-142174380D01*
X168699333Y-141174380D01*
X146018380Y-135174380D02*
X145685047Y-134698190D01*
X145446952Y-135174380D02*
X145446952Y-134174380D01*
X145827904Y-134174380D01*
X145923142Y-134222000D01*
X145970761Y-134269619D01*
X146018380Y-134364857D01*
X146018380Y-134507714D01*
X145970761Y-134602952D01*
X145923142Y-134650571D01*
X145827904Y-134698190D01*
X145446952Y-134698190D01*
X146399333Y-135126761D02*
X146542190Y-135174380D01*
X146780285Y-135174380D01*
X146875523Y-135126761D01*
X146923142Y-135079142D01*
X146970761Y-134983904D01*
X146970761Y-134888666D01*
X146923142Y-134793428D01*
X146875523Y-134745809D01*
X146780285Y-134698190D01*
X146589809Y-134650571D01*
X146494571Y-134602952D01*
X146446952Y-134555333D01*
X146399333Y-134460095D01*
X146399333Y-134364857D01*
X146446952Y-134269619D01*
X146494571Y-134222000D01*
X146589809Y-134174380D01*
X146827904Y-134174380D01*
X146970761Y-134222000D01*
X147256476Y-134174380D02*
X147827904Y-134174380D01*
X147542190Y-135174380D02*
X147542190Y-134174380D01*
X143485047Y-143893428D02*
X144246952Y-143893428D01*
X143866000Y-144274380D02*
X143866000Y-143512476D01*
X143163738Y-126949380D02*
X143782785Y-126949380D01*
X143449452Y-127330333D01*
X143592309Y-127330333D01*
X143687547Y-127377952D01*
X143735166Y-127425571D01*
X143782785Y-127520809D01*
X143782785Y-127758904D01*
X143735166Y-127854142D01*
X143687547Y-127901761D01*
X143592309Y-127949380D01*
X143306595Y-127949380D01*
X143211357Y-127901761D01*
X143163738Y-127854142D01*
X144211357Y-127854142D02*
X144258976Y-127901761D01*
X144211357Y-127949380D01*
X144163738Y-127901761D01*
X144211357Y-127854142D01*
X144211357Y-127949380D01*
X144639928Y-127044619D02*
X144687547Y-126997000D01*
X144782785Y-126949380D01*
X145020880Y-126949380D01*
X145116119Y-126997000D01*
X145163738Y-127044619D01*
X145211357Y-127139857D01*
X145211357Y-127235095D01*
X145163738Y-127377952D01*
X144592309Y-127949380D01*
X145211357Y-127949380D01*
X145639928Y-127949380D02*
X145639928Y-127282714D01*
X145639928Y-127377952D02*
X145687547Y-127330333D01*
X145782785Y-127282714D01*
X145925642Y-127282714D01*
X146020880Y-127330333D01*
X146068500Y-127425571D01*
X146068500Y-127949380D01*
X146068500Y-127425571D02*
X146116119Y-127330333D01*
X146211357Y-127282714D01*
X146354214Y-127282714D01*
X146449452Y-127330333D01*
X146497071Y-127425571D01*
X146497071Y-127949380D01*
X146973261Y-127949380D02*
X146973261Y-127282714D01*
X146973261Y-127377952D02*
X147020880Y-127330333D01*
X147116119Y-127282714D01*
X147258976Y-127282714D01*
X147354214Y-127330333D01*
X147401833Y-127425571D01*
X147401833Y-127949380D01*
X147401833Y-127425571D02*
X147449452Y-127330333D01*
X147544690Y-127282714D01*
X147687547Y-127282714D01*
X147782785Y-127330333D01*
X147830404Y-127425571D01*
X147830404Y-127949380D01*
X146211357Y-129599380D02*
X146211357Y-128599380D01*
X146544690Y-129313666D01*
X146878023Y-128599380D01*
X146878023Y-129599380D01*
X147258976Y-128599380D02*
X147878023Y-128599380D01*
X147544690Y-128980333D01*
X147687547Y-128980333D01*
X147782785Y-129027952D01*
X147830404Y-129075571D01*
X147878023Y-129170809D01*
X147878023Y-129408904D01*
X147830404Y-129504142D01*
X147782785Y-129551761D01*
X147687547Y-129599380D01*
X147401833Y-129599380D01*
X147306595Y-129551761D01*
X147258976Y-129504142D01*
X148240857Y-153741428D02*
X149002761Y-153741428D01*
X148621809Y-154122380D02*
X148621809Y-153360476D01*
X149955142Y-153122380D02*
X149478952Y-153122380D01*
X149431333Y-153598571D01*
X149478952Y-153550952D01*
X149574190Y-153503333D01*
X149812285Y-153503333D01*
X149907523Y-153550952D01*
X149955142Y-153598571D01*
X150002761Y-153693809D01*
X150002761Y-153931904D01*
X149955142Y-154027142D01*
X149907523Y-154074761D01*
X149812285Y-154122380D01*
X149574190Y-154122380D01*
X149478952Y-154074761D01*
X149431333Y-154027142D01*
X149256857Y-152471428D02*
X150018761Y-152471428D01*
X149637809Y-152852380D02*
X149637809Y-152090476D01*
X150399714Y-151852380D02*
X151018761Y-151852380D01*
X150685428Y-152233333D01*
X150828285Y-152233333D01*
X150923523Y-152280952D01*
X150971142Y-152328571D01*
X151018761Y-152423809D01*
X151018761Y-152661904D01*
X150971142Y-152757142D01*
X150923523Y-152804761D01*
X150828285Y-152852380D01*
X150542571Y-152852380D01*
X150447333Y-152804761D01*
X150399714Y-152757142D01*
X148240857Y-151455428D02*
X149002761Y-151455428D01*
X148621809Y-151836380D02*
X148621809Y-151074476D01*
X149383714Y-150836380D02*
X150002761Y-150836380D01*
X149669428Y-151217333D01*
X149812285Y-151217333D01*
X149907523Y-151264952D01*
X149955142Y-151312571D01*
X150002761Y-151407809D01*
X150002761Y-151645904D01*
X149955142Y-151741142D01*
X149907523Y-151788761D01*
X149812285Y-151836380D01*
X149526571Y-151836380D01*
X149431333Y-151788761D01*
X149383714Y-151741142D01*
X161758380Y-153614380D02*
X161425047Y-153138190D01*
X161186952Y-153614380D02*
X161186952Y-152614380D01*
X161567904Y-152614380D01*
X161663142Y-152662000D01*
X161710761Y-152709619D01*
X161758380Y-152804857D01*
X161758380Y-152947714D01*
X161710761Y-153042952D01*
X161663142Y-153090571D01*
X161567904Y-153138190D01*
X161186952Y-153138190D01*
X162139333Y-153566761D02*
X162282190Y-153614380D01*
X162520285Y-153614380D01*
X162615523Y-153566761D01*
X162663142Y-153519142D01*
X162710761Y-153423904D01*
X162710761Y-153328666D01*
X162663142Y-153233428D01*
X162615523Y-153185809D01*
X162520285Y-153138190D01*
X162329809Y-153090571D01*
X162234571Y-153042952D01*
X162186952Y-152995333D01*
X162139333Y-152900095D01*
X162139333Y-152804857D01*
X162186952Y-152709619D01*
X162234571Y-152662000D01*
X162329809Y-152614380D01*
X162567904Y-152614380D01*
X162710761Y-152662000D01*
X162996476Y-152614380D02*
X163567904Y-152614380D01*
X163282190Y-153614380D02*
X163282190Y-152614380D01*
X161972666Y-151820571D02*
X162115523Y-151868190D01*
X162163142Y-151915809D01*
X162210761Y-152011047D01*
X162210761Y-152153904D01*
X162163142Y-152249142D01*
X162115523Y-152296761D01*
X162020285Y-152344380D01*
X161639333Y-152344380D01*
X161639333Y-151344380D01*
X161972666Y-151344380D01*
X162067904Y-151392000D01*
X162115523Y-151439619D01*
X162163142Y-151534857D01*
X162163142Y-151630095D01*
X162115523Y-151725333D01*
X162067904Y-151772952D01*
X161972666Y-151820571D01*
X161639333Y-151820571D01*
X163115523Y-152344380D02*
X162639333Y-152344380D01*
X162639333Y-151344380D01*
X159266000Y-159504095D02*
X159218380Y-159599333D01*
X159218380Y-159742190D01*
X159266000Y-159885047D01*
X159361238Y-159980285D01*
X159456476Y-160027904D01*
X159646952Y-160075523D01*
X159789809Y-160075523D01*
X159980285Y-160027904D01*
X160075523Y-159980285D01*
X160170761Y-159885047D01*
X160218380Y-159742190D01*
X160218380Y-159646952D01*
X160170761Y-159504095D01*
X160123142Y-159456476D01*
X159789809Y-159456476D01*
X159789809Y-159646952D01*
X157630761Y-153614285D02*
X157678380Y-153471428D01*
X157678380Y-153233333D01*
X157630761Y-153138095D01*
X157583142Y-153090476D01*
X157487904Y-153042857D01*
X157392666Y-153042857D01*
X157297428Y-153090476D01*
X157249809Y-153138095D01*
X157202190Y-153233333D01*
X157154571Y-153423809D01*
X157106952Y-153519047D01*
X157059333Y-153566666D01*
X156964095Y-153614285D01*
X156868857Y-153614285D01*
X156773619Y-153566666D01*
X156726000Y-153519047D01*
X156678380Y-153423809D01*
X156678380Y-153185714D01*
X156726000Y-153042857D01*
X157678380Y-152614285D02*
X156678380Y-152614285D01*
X156678380Y-152376190D01*
X156726000Y-152233333D01*
X156821238Y-152138095D01*
X156916476Y-152090476D01*
X157106952Y-152042857D01*
X157249809Y-152042857D01*
X157440285Y-152090476D01*
X157535523Y-152138095D01*
X157630761Y-152233333D01*
X157678380Y-152376190D01*
X157678380Y-152614285D01*
X157392666Y-151661904D02*
X157392666Y-151185714D01*
X157678380Y-151757142D02*
X156678380Y-151423809D01*
X157678380Y-151090476D01*
X155090761Y-153590476D02*
X155138380Y-153447619D01*
X155138380Y-153209523D01*
X155090761Y-153114285D01*
X155043142Y-153066666D01*
X154947904Y-153019047D01*
X154852666Y-153019047D01*
X154757428Y-153066666D01*
X154709809Y-153114285D01*
X154662190Y-153209523D01*
X154614571Y-153400000D01*
X154566952Y-153495238D01*
X154519333Y-153542857D01*
X154424095Y-153590476D01*
X154328857Y-153590476D01*
X154233619Y-153542857D01*
X154186000Y-153495238D01*
X154138380Y-153400000D01*
X154138380Y-153161904D01*
X154186000Y-153019047D01*
X155043142Y-152019047D02*
X155090761Y-152066666D01*
X155138380Y-152209523D01*
X155138380Y-152304761D01*
X155090761Y-152447619D01*
X154995523Y-152542857D01*
X154900285Y-152590476D01*
X154709809Y-152638095D01*
X154566952Y-152638095D01*
X154376476Y-152590476D01*
X154281238Y-152542857D01*
X154186000Y-152447619D01*
X154138380Y-152304761D01*
X154138380Y-152209523D01*
X154186000Y-152066666D01*
X154233619Y-152019047D01*
X155138380Y-151114285D02*
X155138380Y-151590476D01*
X154138380Y-151590476D01*
X151646000Y-153161904D02*
X151598380Y-153257142D01*
X151598380Y-153400000D01*
X151646000Y-153542857D01*
X151741238Y-153638095D01*
X151836476Y-153685714D01*
X152026952Y-153733333D01*
X152169809Y-153733333D01*
X152360285Y-153685714D01*
X152455523Y-153638095D01*
X152550761Y-153542857D01*
X152598380Y-153400000D01*
X152598380Y-153304761D01*
X152550761Y-153161904D01*
X152503142Y-153114285D01*
X152169809Y-153114285D01*
X152169809Y-153304761D01*
X152598380Y-152685714D02*
X151598380Y-152685714D01*
X152598380Y-152114285D01*
X151598380Y-152114285D01*
X152598380Y-151638095D02*
X151598380Y-151638095D01*
X151598380Y-151400000D01*
X151646000Y-151257142D01*
X151741238Y-151161904D01*
X151836476Y-151114285D01*
X152026952Y-151066666D01*
X152169809Y-151066666D01*
X152360285Y-151114285D01*
X152455523Y-151161904D01*
X152550761Y-151257142D01*
X152598380Y-151400000D01*
X152598380Y-151638095D01*
X167092380Y-153669904D02*
X167092380Y-153098476D01*
X168092380Y-153384190D02*
X167092380Y-153384190D01*
X167092380Y-152860380D02*
X168092380Y-152193714D01*
X167092380Y-152193714D02*
X168092380Y-152860380D01*
X165298380Y-153074666D02*
X164822190Y-153408000D01*
X165298380Y-153646095D02*
X164298380Y-153646095D01*
X164298380Y-153265142D01*
X164346000Y-153169904D01*
X164393619Y-153122285D01*
X164488857Y-153074666D01*
X164631714Y-153074666D01*
X164726952Y-153122285D01*
X164774571Y-153169904D01*
X164822190Y-153265142D01*
X164822190Y-153646095D01*
X164298380Y-152741333D02*
X165298380Y-152074666D01*
X164298380Y-152074666D02*
X165298380Y-152741333D01*
X147391428Y-163163142D02*
X147391428Y-162401238D01*
X147772380Y-162782190D02*
X147010476Y-162782190D01*
X146772380Y-161448857D02*
X146772380Y-161925047D01*
X147248571Y-161972666D01*
X147200952Y-161925047D01*
X147153333Y-161829809D01*
X147153333Y-161591714D01*
X147200952Y-161496476D01*
X147248571Y-161448857D01*
X147343809Y-161401238D01*
X147581904Y-161401238D01*
X147677142Y-161448857D01*
X147724761Y-161496476D01*
X147772380Y-161591714D01*
X147772380Y-161829809D01*
X147724761Y-161925047D01*
X147677142Y-161972666D01*
X169322857Y-153233428D02*
X170084761Y-153233428D01*
X169703809Y-153614380D02*
X169703809Y-152852476D01*
X170465714Y-152614380D02*
X171084761Y-152614380D01*
X170751428Y-152995333D01*
X170894285Y-152995333D01*
X170989523Y-153042952D01*
X171037142Y-153090571D01*
X171084761Y-153185809D01*
X171084761Y-153423904D01*
X171037142Y-153519142D01*
X170989523Y-153566761D01*
X170894285Y-153614380D01*
X170608571Y-153614380D01*
X170513333Y-153566761D01*
X170465714Y-153519142D01*
X170949904Y-160028000D02*
X170854666Y-159980380D01*
X170711809Y-159980380D01*
X170568952Y-160028000D01*
X170473714Y-160123238D01*
X170426095Y-160218476D01*
X170378476Y-160408952D01*
X170378476Y-160551809D01*
X170426095Y-160742285D01*
X170473714Y-160837523D01*
X170568952Y-160932761D01*
X170711809Y-160980380D01*
X170807047Y-160980380D01*
X170949904Y-160932761D01*
X170997523Y-160885142D01*
X170997523Y-160551809D01*
X170807047Y-160551809D01*
D11*
%TO.C,J1*%
X146478000Y-156822000D02*
X146478000Y-164222000D01*
X136478000Y-156822000D02*
X146478000Y-156822000D01*
X136478000Y-156822000D02*
X136478000Y-164222000D01*
%TO.C,U1*%
X136544000Y-147356000D02*
X136544000Y-141346000D01*
X143364000Y-145106000D02*
X143364000Y-141346000D01*
X136544000Y-141346000D02*
X137804000Y-141346000D01*
X143364000Y-141346000D02*
X142104000Y-141346000D01*
%TO.C,R5*%
X145160000Y-142901641D02*
X145160000Y-142594359D01*
X144400000Y-142901641D02*
X144400000Y-142594359D01*
%TO.C,R4*%
X140304436Y-137562000D02*
X141758564Y-137562000D01*
X140304436Y-135742000D02*
X141758564Y-135742000D01*
%TO.C,R3*%
X136907000Y-149579359D02*
X136907000Y-149886641D01*
X137667000Y-149579359D02*
X137667000Y-149886641D01*
%TO.C,R2*%
X137012359Y-153802000D02*
X137319641Y-153802000D01*
X137012359Y-153042000D02*
X137319641Y-153042000D01*
%TO.C,R1*%
X137006359Y-155066000D02*
X137313641Y-155066000D01*
X137006359Y-154306000D02*
X137313641Y-154306000D01*
%TO.C,JP2*%
X169402000Y-142506000D02*
X169402000Y-145306000D01*
X169402000Y-145306000D02*
X167402000Y-145306000D01*
X167402000Y-145306000D02*
X167402000Y-142506000D01*
X167402000Y-142506000D02*
X169402000Y-142506000D01*
%TO.C,JP1*%
X147558000Y-135506000D02*
X147558000Y-138306000D01*
X147558000Y-138306000D02*
X145558000Y-138306000D01*
X145558000Y-138306000D02*
X145558000Y-135506000D01*
X145558000Y-135506000D02*
X147558000Y-135506000D01*
%TO.C,J3*%
X148276000Y-161798000D02*
X148276000Y-160468000D01*
X148276000Y-160468000D02*
X149606000Y-160468000D01*
X150876000Y-160468000D02*
X168716000Y-160468000D01*
X168716000Y-163128000D02*
X168716000Y-160468000D01*
X150876000Y-163128000D02*
X168716000Y-163128000D01*
X150876000Y-163128000D02*
X150876000Y-160468000D01*
%TO.C,J2*%
X148276000Y-159572000D02*
X148276000Y-158242000D01*
X149606000Y-159572000D02*
X148276000Y-159572000D01*
X148276000Y-156972000D02*
X148276000Y-154372000D01*
X150876000Y-156972000D02*
X148276000Y-156972000D01*
X150876000Y-159572000D02*
X150876000Y-156972000D01*
X148276000Y-154372000D02*
X158556000Y-154372000D01*
X150876000Y-159572000D02*
X158556000Y-159572000D01*
X158556000Y-159572000D02*
X158556000Y-154372000D01*
%TO.C,F1*%
X139552000Y-150397936D02*
X139552000Y-151602064D01*
X141372000Y-150397936D02*
X141372000Y-151602064D01*
%TO.C,D1*%
X145515000Y-147027000D02*
X145515000Y-144742000D01*
X144045000Y-147027000D02*
X145515000Y-147027000D01*
X144045000Y-144742000D02*
X144045000Y-147027000D01*
%TO.C,C6*%
X146960000Y-158670164D02*
X146960000Y-158885836D01*
X147680000Y-158670164D02*
X147680000Y-158885836D01*
%TO.C,C5*%
X146704164Y-146918000D02*
X146919836Y-146918000D01*
X146704164Y-146198000D02*
X146919836Y-146198000D01*
%TO.C,C4*%
X146704164Y-145394000D02*
X146919836Y-145394000D01*
X146704164Y-144674000D02*
X146919836Y-144674000D01*
%TO.C,C3*%
X136292000Y-151657164D02*
X136292000Y-151872836D01*
X137012000Y-151657164D02*
X137012000Y-151872836D01*
%TO.C,C2*%
X137562000Y-151657164D02*
X137562000Y-151872836D01*
X138282000Y-151657164D02*
X138282000Y-151872836D01*
%TO.C,C1*%
X141880000Y-149498164D02*
X141880000Y-149713836D01*
X142600000Y-149498164D02*
X142600000Y-149713836D01*
%TO.C,U2*%
X149360000Y-126437000D02*
X165600000Y-126437000D01*
X165600000Y-126437000D02*
X165600000Y-134057000D01*
X165600000Y-150057000D02*
X165600000Y-150677000D01*
X165600000Y-150677000D02*
X163480000Y-150677000D01*
X151480000Y-150677000D02*
X149360000Y-150677000D01*
X149360000Y-150677000D02*
X149360000Y-150057000D01*
X149360000Y-134057000D02*
X149360000Y-126437000D01*
X149360000Y-134057000D02*
X148750000Y-134057000D01*
%TO.C,J4*%
X160976000Y-159572000D02*
X160976000Y-158242000D01*
X162306000Y-159572000D02*
X160976000Y-159572000D01*
X160976000Y-156972000D02*
X160976000Y-154372000D01*
X163576000Y-156972000D02*
X160976000Y-156972000D01*
X163576000Y-159572000D02*
X163576000Y-156972000D01*
X160976000Y-154372000D02*
X171256000Y-154372000D01*
X163576000Y-159572000D02*
X171256000Y-159572000D01*
X171256000Y-159572000D02*
X171256000Y-154372000D01*
%TO.C,R5*%
D10*
X145232380Y-140882666D02*
X144756190Y-141216000D01*
X145232380Y-141454095D02*
X144232380Y-141454095D01*
X144232380Y-141073142D01*
X144280000Y-140977904D01*
X144327619Y-140930285D01*
X144422857Y-140882666D01*
X144565714Y-140882666D01*
X144660952Y-140930285D01*
X144708571Y-140977904D01*
X144756190Y-141073142D01*
X144756190Y-141454095D01*
X144232380Y-139977904D02*
X144232380Y-140454095D01*
X144708571Y-140501714D01*
X144660952Y-140454095D01*
X144613333Y-140358857D01*
X144613333Y-140120761D01*
X144660952Y-140025523D01*
X144708571Y-139977904D01*
X144803809Y-139930285D01*
X145041904Y-139930285D01*
X145137142Y-139977904D01*
X145184761Y-140025523D01*
X145232380Y-140120761D01*
X145232380Y-140358857D01*
X145184761Y-140454095D01*
X145137142Y-140501714D01*
%TO.C,R4*%
X137501333Y-137612380D02*
X137168000Y-137136190D01*
X136929904Y-137612380D02*
X136929904Y-136612380D01*
X137310857Y-136612380D01*
X137406095Y-136660000D01*
X137453714Y-136707619D01*
X137501333Y-136802857D01*
X137501333Y-136945714D01*
X137453714Y-137040952D01*
X137406095Y-137088571D01*
X137310857Y-137136190D01*
X136929904Y-137136190D01*
X138358476Y-136945714D02*
X138358476Y-137612380D01*
X138120380Y-136564761D02*
X137882285Y-137279047D01*
X138501333Y-137279047D01*
%TO.C,R3*%
X136088380Y-149772666D02*
X135612190Y-150106000D01*
X136088380Y-150344095D02*
X135088380Y-150344095D01*
X135088380Y-149963142D01*
X135136000Y-149867904D01*
X135183619Y-149820285D01*
X135278857Y-149772666D01*
X135421714Y-149772666D01*
X135516952Y-149820285D01*
X135564571Y-149867904D01*
X135612190Y-149963142D01*
X135612190Y-150344095D01*
X135088380Y-149439333D02*
X135088380Y-148820285D01*
X135469333Y-149153619D01*
X135469333Y-149010761D01*
X135516952Y-148915523D01*
X135564571Y-148867904D01*
X135659809Y-148820285D01*
X135897904Y-148820285D01*
X135993142Y-148867904D01*
X136040761Y-148915523D01*
X136088380Y-149010761D01*
X136088380Y-149296476D01*
X136040761Y-149391714D01*
X135993142Y-149439333D01*
%TO.C,R2*%
X135818380Y-153888666D02*
X135342190Y-154222000D01*
X135818380Y-154460095D02*
X134818380Y-154460095D01*
X134818380Y-154079142D01*
X134866000Y-153983904D01*
X134913619Y-153936285D01*
X135008857Y-153888666D01*
X135151714Y-153888666D01*
X135246952Y-153936285D01*
X135294571Y-153983904D01*
X135342190Y-154079142D01*
X135342190Y-154460095D01*
X134913619Y-153507714D02*
X134866000Y-153460095D01*
X134818380Y-153364857D01*
X134818380Y-153126761D01*
X134866000Y-153031523D01*
X134913619Y-152983904D01*
X135008857Y-152936285D01*
X135104095Y-152936285D01*
X135246952Y-152983904D01*
X135818380Y-153555333D01*
X135818380Y-152936285D01*
%TO.C,R1*%
X135834380Y-155868666D02*
X135358190Y-156202000D01*
X135834380Y-156440095D02*
X134834380Y-156440095D01*
X134834380Y-156059142D01*
X134882000Y-155963904D01*
X134929619Y-155916285D01*
X135024857Y-155868666D01*
X135167714Y-155868666D01*
X135262952Y-155916285D01*
X135310571Y-155963904D01*
X135358190Y-156059142D01*
X135358190Y-156440095D01*
X135834380Y-154916285D02*
X135834380Y-155487714D01*
X135834380Y-155202000D02*
X134834380Y-155202000D01*
X134977238Y-155297238D01*
X135072476Y-155392476D01*
X135120095Y-155487714D01*
%TO.C,F1*%
X138612571Y-149939333D02*
X138612571Y-150272666D01*
X139136380Y-150272666D02*
X138136380Y-150272666D01*
X138136380Y-149796476D01*
X139136380Y-148891714D02*
X139136380Y-149463142D01*
X139136380Y-149177428D02*
X138136380Y-149177428D01*
X138279238Y-149272666D01*
X138374476Y-149367904D01*
X138422095Y-149463142D01*
%TO.C,D1*%
X145232380Y-148820095D02*
X144232380Y-148820095D01*
X144232380Y-148582000D01*
X144280000Y-148439142D01*
X144375238Y-148343904D01*
X144470476Y-148296285D01*
X144660952Y-148248666D01*
X144803809Y-148248666D01*
X144994285Y-148296285D01*
X145089523Y-148343904D01*
X145184761Y-148439142D01*
X145232380Y-148582000D01*
X145232380Y-148820095D01*
X145232380Y-147296285D02*
X145232380Y-147867714D01*
X145232380Y-147582000D02*
X144232380Y-147582000D01*
X144375238Y-147677238D01*
X144470476Y-147772476D01*
X144518095Y-147867714D01*
%TO.C,C6*%
X146323142Y-155688666D02*
X146370761Y-155736285D01*
X146418380Y-155879142D01*
X146418380Y-155974380D01*
X146370761Y-156117238D01*
X146275523Y-156212476D01*
X146180285Y-156260095D01*
X145989809Y-156307714D01*
X145846952Y-156307714D01*
X145656476Y-156260095D01*
X145561238Y-156212476D01*
X145466000Y-156117238D01*
X145418380Y-155974380D01*
X145418380Y-155879142D01*
X145466000Y-155736285D01*
X145513619Y-155688666D01*
X145418380Y-154831523D02*
X145418380Y-155022000D01*
X145466000Y-155117238D01*
X145513619Y-155164857D01*
X145656476Y-155260095D01*
X145846952Y-155307714D01*
X146227904Y-155307714D01*
X146323142Y-155260095D01*
X146370761Y-155212476D01*
X146418380Y-155117238D01*
X146418380Y-154926761D01*
X146370761Y-154831523D01*
X146323142Y-154783904D01*
X146227904Y-154736285D01*
X145989809Y-154736285D01*
X145894571Y-154783904D01*
X145846952Y-154831523D01*
X145799333Y-154926761D01*
X145799333Y-155117238D01*
X145846952Y-155212476D01*
X145894571Y-155260095D01*
X145989809Y-155307714D01*
%TO.C,C5*%
X147677142Y-150280666D02*
X147724761Y-150328285D01*
X147772380Y-150471142D01*
X147772380Y-150566380D01*
X147724761Y-150709238D01*
X147629523Y-150804476D01*
X147534285Y-150852095D01*
X147343809Y-150899714D01*
X147200952Y-150899714D01*
X147010476Y-150852095D01*
X146915238Y-150804476D01*
X146820000Y-150709238D01*
X146772380Y-150566380D01*
X146772380Y-150471142D01*
X146820000Y-150328285D01*
X146867619Y-150280666D01*
X146772380Y-149375904D02*
X146772380Y-149852095D01*
X147248571Y-149899714D01*
X147200952Y-149852095D01*
X147153333Y-149756857D01*
X147153333Y-149518761D01*
X147200952Y-149423523D01*
X147248571Y-149375904D01*
X147343809Y-149328285D01*
X147581904Y-149328285D01*
X147677142Y-149375904D01*
X147724761Y-149423523D01*
X147772380Y-149518761D01*
X147772380Y-149756857D01*
X147724761Y-149852095D01*
X147677142Y-149899714D01*
%TO.C,C4*%
X147677142Y-143676666D02*
X147724761Y-143724285D01*
X147772380Y-143867142D01*
X147772380Y-143962380D01*
X147724761Y-144105238D01*
X147629523Y-144200476D01*
X147534285Y-144248095D01*
X147343809Y-144295714D01*
X147200952Y-144295714D01*
X147010476Y-144248095D01*
X146915238Y-144200476D01*
X146820000Y-144105238D01*
X146772380Y-143962380D01*
X146772380Y-143867142D01*
X146820000Y-143724285D01*
X146867619Y-143676666D01*
X147105714Y-142819523D02*
X147772380Y-142819523D01*
X146724761Y-143057619D02*
X147439047Y-143295714D01*
X147439047Y-142676666D01*
%TO.C,C3*%
X135739142Y-151804666D02*
X135786761Y-151852285D01*
X135834380Y-151995142D01*
X135834380Y-152090380D01*
X135786761Y-152233238D01*
X135691523Y-152328476D01*
X135596285Y-152376095D01*
X135405809Y-152423714D01*
X135262952Y-152423714D01*
X135072476Y-152376095D01*
X134977238Y-152328476D01*
X134882000Y-152233238D01*
X134834380Y-152090380D01*
X134834380Y-151995142D01*
X134882000Y-151852285D01*
X134929619Y-151804666D01*
X134834380Y-151471333D02*
X134834380Y-150852285D01*
X135215333Y-151185619D01*
X135215333Y-151042761D01*
X135262952Y-150947523D01*
X135310571Y-150899904D01*
X135405809Y-150852285D01*
X135643904Y-150852285D01*
X135739142Y-150899904D01*
X135786761Y-150947523D01*
X135834380Y-151042761D01*
X135834380Y-151328476D01*
X135786761Y-151423714D01*
X135739142Y-151471333D01*
%TO.C,C2*%
X139295142Y-152058666D02*
X139342761Y-152106285D01*
X139390380Y-152249142D01*
X139390380Y-152344380D01*
X139342761Y-152487238D01*
X139247523Y-152582476D01*
X139152285Y-152630095D01*
X138961809Y-152677714D01*
X138818952Y-152677714D01*
X138628476Y-152630095D01*
X138533238Y-152582476D01*
X138438000Y-152487238D01*
X138390380Y-152344380D01*
X138390380Y-152249142D01*
X138438000Y-152106285D01*
X138485619Y-152058666D01*
X138485619Y-151677714D02*
X138438000Y-151630095D01*
X138390380Y-151534857D01*
X138390380Y-151296761D01*
X138438000Y-151201523D01*
X138485619Y-151153904D01*
X138580857Y-151106285D01*
X138676095Y-151106285D01*
X138818952Y-151153904D01*
X139390380Y-151725333D01*
X139390380Y-151106285D01*
%TO.C,C1*%
X143359142Y-151550666D02*
X143406761Y-151598285D01*
X143454380Y-151741142D01*
X143454380Y-151836380D01*
X143406761Y-151979238D01*
X143311523Y-152074476D01*
X143216285Y-152122095D01*
X143025809Y-152169714D01*
X142882952Y-152169714D01*
X142692476Y-152122095D01*
X142597238Y-152074476D01*
X142502000Y-151979238D01*
X142454380Y-151836380D01*
X142454380Y-151741142D01*
X142502000Y-151598285D01*
X142549619Y-151550666D01*
X143454380Y-150598285D02*
X143454380Y-151169714D01*
X143454380Y-150884000D02*
X142454380Y-150884000D01*
X142597238Y-150979238D01*
X142692476Y-151074476D01*
X142740095Y-151169714D01*
%TD*%
M02*
