M48
; DRILL file {KiCad 5.1.10} date Mon May 31 03:58:20 2021
; FORMAT={-:-/ absolute / metric / decimal}
; #@! TF.CreationDate,2021-05-31T03:58:20-05:00
; #@! TF.GenerationSoftware,Kicad,Pcbnew,5.1.10
; #@! TF.FileFunction,Plated,1,2,PTH
FMAT,2
METRIC
T1C0.400
T2C0.610
T3C1.000
%
G90
G05
T1
X138.966Y-155.322
X139.366Y-154.122
X140.766Y-155.922
X141.966Y-154.922
X144.78Y-153.416
X145.034Y-149.86
X147.32Y-156.464
X147.32Y-160.528
X150.876Y-160.02
X153.416Y-151.13
X153.416Y-153.416
X156.972Y-144.272
X157.68Y-139.757
X159.004Y-146.304
X159.512Y-158.242
X168.148Y-147.32
X168.656Y-153.416
X169.723Y-160.68
X170.434Y-150.368
T3
X149.606Y-155.702
X149.606Y-158.242
X149.606Y-161.798
X152.146Y-155.702
X152.146Y-158.242
X152.146Y-161.798
X154.686Y-155.702
X154.686Y-158.242
X154.686Y-161.798
X157.226Y-155.702
X157.226Y-158.242
X157.226Y-161.798
X159.766Y-161.798
X162.306Y-155.702
X162.306Y-158.242
X162.306Y-161.798
X164.846Y-155.702
X164.846Y-158.242
X164.846Y-161.798
X167.386Y-155.702
X167.386Y-158.242
X167.386Y-161.798
X169.926Y-155.702
X169.926Y-158.242
T2
G00X137.158Y-157.522
M15
G01X137.158Y-158.122
M16
G05
G00X137.158Y-161.322
M15
G01X137.158Y-161.922
M16
G05
G00X145.798Y-157.522
M15
G01X145.798Y-158.122
M16
G05
G00X145.798Y-161.322
M15
G01X145.798Y-161.922
M16
G05
T0
M30
